<?xml version="1.0" encoding="UTF-8" standalone="no"?>
<!-- Created with Inkscape (http://www.inkscape.org/) -->

<svg
   version="1.1"
   id="svg1"
   width="1077.3333"
   height="977.33331"
   viewBox="0 0 1077.3333 977.33331"
   xmlns="http://www.w3.org/2000/svg"
   xmlns:svg="http://www.w3.org/2000/svg"
   xmlns:rdf="http://www.w3.org/1999/02/22-rdf-syntax-ns#"
   xmlns:cc="http://creativecommons.org/ns#">
  <defs
     id="defs1" />
  <g
     id="g1">
    <path
       style="fill:#000000;stroke-width:0.0311856"
       d="m 522.66665,488.66666 v -16.00001 h 16 16 v 16.00001 15.99999 h -16 -16 z m 9.20132,15.3077 c 1.90779,-0.005 2.40581,-0.0176 2.39277,-0.0608 -0.009,-0.03 -0.0685,-0.0647 -0.13201,-0.0771 l -0.11555,-0.0226 0.11882,-0.0512 c 0.0653,-0.0282 0.25247,-0.0665 0.41584,-0.0851 l 0.29703,-0.0339 -0.25743,-0.0291 c -0.14158,-0.016 -2.45931,-0.0314 -5.15049,-0.0342 -3.75811,-0.004 -4.9041,0.007 -4.9406,0.0473 -0.0401,0.0442 -0.0687,0.27652 -0.0376,0.30639 0.0193,0.0186 2.8782,0.0559 3.93069,0.0512 0.58812,-0.003 2.15347,-0.007 3.47855,-0.0109 z m 20.79315,-0.034 c 0.17457,-0.0264 0.18375,-0.0347 0.18375,-0.16589 0,-0.076 -0.0183,-0.15829 -0.0407,-0.18294 -0.0425,-0.0469 -9.8354,-0.0398 -10.08807,0.007 -0.21246,0.0396 -0.14625,0.093 0.15333,0.1237 0.29973,0.0307 0.46164,0.0906 0.35162,0.13004 -0.15535,0.0557 -0.16775,0.0706 -0.0478,0.0573 0.0717,-0.008 0.13964,0.002 0.15086,0.0219 0.0236,0.042 9.06059,0.0504 9.33692,0.009 z m -16.13308,-0.0557 c 0,-0.0219 -0.0758,-0.0524 -0.16832,-0.0678 -0.0926,-0.0154 -0.22178,-0.0391 -0.28713,-0.0526 -0.21338,-0.0442 -0.0682,0.0393 0.16695,0.096 0.29633,0.0715 0.2885,0.0708 0.2885,0.0244 z m -9.46535,-3.93968 c 0,-2.54991 -0.0101,-3.16298 -0.0535,-3.25868 -0.0294,-0.0648 -0.0563,-0.24559 -0.0596,-0.40166 -0.003,-0.15607 -0.0223,-0.3427 -0.0421,-0.41473 -0.0357,-0.12997 -0.0532,2.40493 -0.0444,6.43929 l 0.002,0.76398 0.099,0.006 0.099,0.006 z m -0.11569,-3.11827 c 0.002,-0.0509 0.0113,-0.0612 0.0239,-0.0264 0.0114,0.0315 0.01,0.0692 -0.003,0.0837 -0.0132,0.0145 -0.0225,-0.0113 -0.0208,-0.0573 z m 11.78813,6.24193 c -0.0132,-0.0145 -0.0473,-0.0161 -0.0759,-0.003 -0.0316,0.0139 -0.0222,0.0243 0.0239,0.0264 0.0418,0.002 0.0651,-0.008 0.052,-0.0229 z m 12.37552,-3.4825 0.0114,-3.49795 0.1742,-0.58936 c 0.28274,-0.95661 0.61795,-1.43736 1.42976,-2.05058 0.18515,-0.13985 0.33174,-0.27739 0.32576,-0.30564 -0.006,-0.0283 0.005,-0.0408 0.0237,-0.0278 0.0571,0.0389 0.28425,-0.19687 0.45248,-0.4698 0.42769,-0.69387 0.54396,-1.61908 0.28828,-2.29396 -0.21733,-0.57366 -0.45625,-0.87399 -1.18283,-1.48686 -0.76347,-0.64397 -1.20041,-1.33284 -1.41295,-2.22758 l -0.0882,-0.37108 0.007,-4.21851 0.007,-4.21852 -0.0978,-0.12528 -0.0978,-0.12527 -3.45878,0.016 c -1.90233,0.009 -3.47404,0.0315 -3.49269,0.0505 -0.0187,0.019 0.0503,0.0755 0.15328,0.12575 0.41153,0.20066 0.55018,0.2225 1.41257,0.2225 0.45347,0 0.82449,0.009 0.82449,0.019 0,0.0104 -0.0167,0.0675 -0.0372,0.12683 -0.0344,0.0999 -0.063,0.11005 -0.38614,0.1377 -0.43582,0.0373 -0.58657,0.0765 -0.58657,0.15268 0,0.0328 0.0535,0.0775 0.11881,0.0993 0.0653,0.0219 1.14656,0.0527 2.4027,0.0686 1.25613,0.0159 2.29871,0.0453 2.31683,0.0653 0.0181,0.0201 0.0341,1.37558 0.0355,3.01228 0.002,2.97028 0.0185,3.37491 0.14311,3.61736 0.0845,0.16446 0.1111,-0.71314 0.12188,-4.02416 0.01,-2.96029 0.009,-2.98984 -0.0695,-3.00306 -0.19359,-0.0326 -0.25914,-0.0589 -0.2386,-0.0955 0.0458,-0.0816 -0.049,-0.0813 -0.1711,5.3e-4 -0.0935,0.0627 -0.19913,0.0851 -0.40175,0.0851 -0.23528,0 -0.28104,-0.0127 -0.3177,-0.0882 -0.0236,-0.0485 -0.0322,-0.10725 -0.0191,-0.13051 0.0359,-0.064 1.43484,-0.0442 1.48395,0.021 0.0249,0.0331 0.0429,1.60757 0.0497,4.34852 l 0.0107,4.29668 0.184,0.49109 c 0.34739,0.9272 0.65733,1.36046 1.46758,2.05153 0.50007,0.4265 0.76006,0.72874 0.88438,1.02807 0.0998,0.24039 0.22457,0.80032 0.22289,1.00056 -0.002,0.21624 -0.12491,0.66299 -0.2841,1.03108 -0.16378,0.37869 -0.46929,0.76388 -0.71859,0.90598 -0.17405,0.0992 -0.66319,0.48453 -0.81955,0.64559 -0.37127,0.38242 -0.7595,1.25541 -0.87619,1.97024 -0.0572,0.3506 -0.077,7.21865 -0.0208,7.24063 0.0218,0.009 0.079,0.0159 0.12717,0.0164 l 0.0876,8.6e-4 z m 0.0932,-4.49301 c 0.0149,-0.0431 0.037,-0.0673 0.0492,-0.0538 0.0122,0.0134 2e-5,0.0487 -0.027,0.0783 -0.0391,0.0428 -0.0437,0.0378 -0.0222,-0.0244 z m 0.16653,-0.29089 c -0.0274,-0.10744 -0.011,-0.16963 0.0321,-0.12207 0.0127,0.0139 0.0167,0.0712 0.009,0.12733 l -0.0139,0.10197 z m 0.15841,-0.30559 c -0.0274,-0.10745 -0.011,-0.16963 0.0322,-0.12208 0.0127,0.0139 0.0167,0.0712 0.009,0.12733 l -0.0139,0.10198 z m -4.94233,-16.31035 c -0.0626,-0.18139 -0.05,-0.19361 0.199,-0.19361 0.20457,0 0.23762,0.0112 0.23762,0.0806 0,0.11927 -0.12757,0.22505 -0.27142,0.22505 -0.0994,0 -0.13486,-0.024 -0.1652,-0.11199 z m 0.70065,0.0829 c -0.0145,-0.016 -0.0264,-0.0848 -0.0264,-0.1528 0,-0.12222 0.003,-0.12369 0.24029,-0.12369 0.23063,0 0.23923,0.004 0.21382,0.0982 -0.0145,0.054 -0.0548,0.12278 -0.0894,0.1528 -0.0665,0.0577 -0.29356,0.0747 -0.33827,0.0255 z m 1.4309,-0.006 c -0.0738,-0.0158 -0.13046,-0.15668 -0.0912,-0.22674 0.0299,-0.0534 0.56118,-0.0594 0.59072,-0.007 0.0636,0.11336 -0.28969,0.27846 -0.49954,0.23348 z m -0.80372,-0.0958 c -0.0399,-0.13864 0.01,-0.17502 0.23984,-0.17502 0.22098,0 0.24883,0.0281 0.19145,0.19288 -0.0173,0.0498 -0.0774,0.0691 -0.21515,0.0691 -0.15605,0 -0.19571,-0.016 -0.21614,-0.0869 z m -21.42471,23.62853 c 0.0242,-1.01359 -1.1e-4,-4.19532 -0.0388,-5.07503 -0.005,-0.10805 -0.0116,-0.38145 -0.0152,-0.60755 -0.008,-0.48616 -0.0506,-0.51183 -0.0506,-0.0303 0,0.23772 -0.0142,0.33227 -0.0498,0.33227 -0.0342,0 -0.0679,-0.1697 -0.10762,-0.54216 -0.0318,-0.29818 -0.0441,-0.53277 -0.0272,-0.52129 0.0168,0.0115 0.0306,-0.001 0.0306,-0.0279 0,-0.0269 0.0178,-0.0367 0.0396,-0.0218 0.0218,0.0148 0.0396,-0.0135 0.0396,-0.0629 0,-0.0494 -0.0178,-0.0899 -0.0396,-0.0899 -0.0218,0 -0.0396,0.022 -0.0396,0.049 0,0.036 -0.0141,0.0362 -0.0531,3.8e-4 -0.0292,-0.0267 -0.0658,-0.0346 -0.0813,-0.0176 -0.0155,0.0171 -0.0164,-0.003 -0.002,-0.044 0.0144,-0.0413 0.0529,-0.0751 0.0856,-0.0751 0.0822,0 0.0432,-0.15894 -0.13926,-0.56753 -0.1818,-0.40712 -0.55741,-0.83234 -1.05837,-1.1982 -0.40323,-0.29447 -0.84223,-0.75593 -0.94045,-0.98855 -0.1029,-0.2437 -0.18728,-0.64677 -0.18728,-0.89459 0,-0.37712 0.17524,-1.04321 0.35406,-1.34574 0.19281,-0.32623 0.35558,-0.50387 0.90207,-0.98451 0.66533,-0.58517 0.96875,-1.04149 1.22492,-1.84223 0.15495,-0.4843 0.17261,-0.99206 0.18357,-5.27551 0.005,-2.12497 0.023,-3.88629 0.039,-3.91405 0.0313,-0.0542 1.17803,-0.0755 1.17702,-0.0218 -3e-4,0.0158 -0.0113,0.0729 -0.0244,0.12687 -0.0213,0.0877 -0.0487,0.0982 -0.25688,0.0982 -0.17647,0 -0.233,-0.0153 -0.233,-0.0629 0,-0.1032 -0.0828,-0.12767 -0.10572,-0.0312 -0.0147,0.0618 -0.0596,0.0934 -0.14585,0.10262 l -0.12467,0.0134 -0.0123,2.66303 c -0.0123,2.6545 0.0166,4.60573 0.0681,4.60573 0.0149,0 0.0599,-0.15225 0.1,-0.33834 0.0661,-0.30702 0.0745,-0.62519 0.0915,-3.43793 0.0103,-1.70477 0.0272,-3.10941 0.0375,-3.12141 0.0104,-0.012 1.04068,-0.0317 2.28964,-0.0437 l 2.27082,-0.0218 0.10561,-0.10914 0.10561,-0.10914 -0.11237,-0.0276 c -0.0618,-0.0152 -0.19909,-0.0299 -0.3051,-0.0327 -0.17221,-0.005 -0.19053,-0.0145 -0.17202,-0.0925 0.0265,-0.11149 -0.019,-0.11149 -0.11049,0 -0.0508,0.0619 -0.12198,0.0873 -0.24474,0.0873 -0.14965,0 -0.17832,-0.0153 -0.21197,-0.11281 -0.0214,-0.062 -0.0288,-0.1308 -0.0165,-0.15279 0.0322,-0.0575 1.5227,-0.0521 1.5227,0.005 0,0.0486 -0.13852,0.55528 -0.20398,0.74617 -0.0217,0.0632 -0.11627,0.17578 -0.21021,0.25014 -0.58321,0.46169 -1.50589,1.40537 -2.09739,2.14516 -0.76768,0.96011 -1.20706,1.67473 -1.73556,2.82277 -0.4204,0.9132 -0.53848,1.22729 -0.78451,2.08668 -0.45177,1.57806 -0.60265,2.61837 -0.60812,4.19286 -0.004,1.21882 0.0646,1.87682 0.29916,2.85949 0.11568,0.48463 0.18769,0.69638 0.13731,0.40382 -0.0134,-0.078 -0.0338,-0.20573 -0.0452,-0.28377 l -0.0208,-0.14188 0.0566,0.13097 0.0566,0.13097 -0.0216,-0.17463 c -0.0119,-0.096 -0.0391,-0.21391 -0.0605,-0.26194 -0.0277,-0.062 -0.0266,-0.0746 0.004,-0.0435 0.0234,0.0241 0.0903,0.20092 0.14857,0.39291 0.0583,0.19199 0.12072,0.38836 0.13878,0.43639 0.0181,0.048 0.0793,0.24447 0.13616,0.43656 0.14225,0.48078 0.76057,1.96877 0.97956,2.35731 0.28664,0.50858 0.57777,0.983 0.66918,1.09048 0.0618,0.0726 0.11235,0.14675 0.11245,0.16476 9e-5,0.018 0.018,0.0327 0.0398,0.0327 0.0218,0 0.0396,-0.0447 0.0396,-0.0994 0,-0.24341 0.23404,-0.38259 0.36501,-0.21708 0.14349,0.18133 0.16276,0.27659 0.0806,0.39836 -0.0425,0.063 -0.11563,0.12088 -0.16245,0.12855 -0.14523,0.0238 -0.0934,0.0842 0.0566,0.0659 0.0914,-0.0111 0.1327,-10e-4 0.1163,0.0281 -0.014,0.025 0.003,0.0576 0.0388,0.0725 0.0353,0.0149 0.0564,0.0496 0.0469,0.0769 -0.0117,0.0337 0.0547,0.0495 0.20564,0.0489 0.21553,-8.2e-4 0.22529,0.004 0.29222,0.15194 0.0381,0.084 0.0693,0.12824 0.0693,0.0982 9e-5,-0.0787 0.14558,-0.0673 0.17376,0.0137 0.0131,0.0375 0.0415,0.0562 0.0632,0.0414 0.022,-0.015 0.0299,6.1e-4 0.0178,0.0353 -0.0119,0.0342 0.007,0.0743 0.0421,0.0891 0.0438,0.0185 0.0545,0.01 0.0343,-0.0271 -0.0198,-0.0362 -0.008,-0.0345 0.0371,0.005 0.0366,0.0327 0.0549,0.0803 0.0407,0.10565 -0.0163,0.029 -6.6e-4,0.0355 0.0421,0.0174 0.0374,-0.0158 0.0583,-0.0115 0.0464,0.01 -0.0118,0.0211 0.0234,0.0709 0.0784,0.11056 0.0554,0.04 0.0878,0.0938 0.0728,0.12066 -0.0165,0.0295 -0.009,0.0362 0.0188,0.0171 0.0253,-0.0172 0.0739,-6.3e-4 0.10796,0.0369 0.0341,0.0375 0.0517,0.0683 0.0393,0.0683 -0.0124,0 0.0144,0.0408 0.0596,0.0907 0.0453,0.0499 0.0725,0.11863 0.0607,0.15279 -0.0127,0.0363 0.003,0.0621 0.0365,0.0621 0.0837,0 0.0717,0.0695 -0.0309,0.17882 -0.0738,0.0787 -0.0759,0.0872 -0.012,0.0497 0.0856,-0.0502 0.23492,-0.005 0.34507,0.10523 0.0362,0.0362 0.0987,0.0714 0.13869,0.0783 0.0423,0.007 0.068,0.0422 0.0613,0.0833 -0.008,0.0512 0.008,0.0631 0.0594,0.0431 0.0435,-0.017 0.0211,0.0275 -0.0578,0.11501 -0.0708,0.0785 -0.12871,0.16438 -0.12871,0.19089 0,0.0265 0.0525,-0.0151 0.11658,-0.0925 0.0641,-0.0774 0.13352,-0.1407 0.15422,-0.1407 0.0645,0 0.28365,0.24965 0.28365,0.32311 0,0.0384 0.0178,0.0698 0.0396,0.0698 0.0218,0 0.0396,-0.0405 0.0396,-0.0901 0,-0.0753 0.0211,-0.0878 0.12871,-0.0764 0.0815,0.009 0.12472,0.0349 0.11783,0.0715 -0.006,0.0318 0.006,0.0461 0.0275,0.0317 0.0211,-0.0144 0.15965,0.057 0.30791,0.15868 0.14827,0.10163 0.47453,0.29761 0.72502,0.43551 0.2505,0.1379 0.4258,0.25166 0.38956,0.25281 -0.052,0.002 -0.0599,0.0269 -0.0374,0.11945 0.0257,0.10593 0.047,0.11773 0.21881,0.12129 0.23195,0.005 0.36055,0.13887 0.32439,0.33817 -0.0122,0.0669 -0.005,0.12169 0.0165,0.12169 0.0212,0 0.0386,-0.0795 0.0386,-0.17661 0,-0.17502 10e-4,-0.17639 0.12871,-0.15281 0.0708,0.0131 0.17327,0.0316 0.22772,0.0411 0.0545,0.01 0.24159,0.0683 0.41584,0.13052 0.80009,0.28589 1.82305,0.50316 2.70297,0.57409 0.20149,0.0163 0.36634,0.0478 0.36634,0.0701 0,0.0223 -0.0288,0.089 -0.064,0.14816 -0.0393,0.0661 -0.0469,0.1076 -0.0198,0.1076 0.0243,0 0.0447,-0.0246 0.0454,-0.0546 0.002,-0.097 0.19365,-0.2177 0.29909,-0.18852 0.069,0.0191 0.10458,0.006 0.12189,-0.0433 0.0196,-0.0565 0.0311,-0.0588 0.0585,-0.012 0.0239,0.0409 0.043,0.0439 0.0638,0.0102 0.0163,-0.0264 0.15446,-0.052 0.30693,-0.0569 1.26158,-0.0407 2.63089,-0.40023 3.89481,-1.02274 0.54714,-0.26948 1.12237,-0.60226 1.45173,-0.83986 0.25934,-0.18709 0.47233,-0.30254 0.43486,-0.23572 -0.013,0.0233 -0.003,0.0423 0.0225,0.0423 0.0254,0 0.0359,0.0295 0.0234,0.0655 -0.0365,0.10475 0.0311,0.0755 0.0742,-0.0321 0.0215,-0.0537 0.0885,-0.11656 0.14886,-0.13973 0.0904,-0.0347 0.12449,-0.0259 0.19307,0.0497 0.0458,0.0505 0.0833,0.14285 0.0833,0.20521 0,0.13769 0.002,0.13792 0.12315,0.0152 0.11527,-0.11668 0.16752,-0.16071 0.3125,-0.26329 0.0599,-0.0424 0.10891,-0.10978 0.10891,-0.14977 0,-0.0604 -0.0137,-0.0565 -0.0807,0.0228 -0.10872,0.12863 -0.17043,0.12044 -0.29197,-0.0388 -0.12137,-0.159 -0.12404,-0.18057 -0.0332,-0.26848 0.12016,-0.11631 0.24571,-0.13641 0.32957,-0.0528 0.0529,0.0528 0.0764,0.0589 0.0764,0.02 0,-0.0309 -0.0394,-0.0939 -0.0876,-0.13999 l -0.0876,-0.0838 0.12723,0.0247 c 0.0743,0.0144 0.12724,0.006 0.12724,-0.0196 0,-0.0244 -0.0198,-0.0443 -0.044,-0.0443 -0.0628,0 -0.006,-0.3108 0.0723,-0.3929 0.0553,-0.0583 0.0598,-0.0581 0.0412,0.002 -0.0138,0.0441 0.004,0.067 0.051,0.067 0.0527,0 0.0629,-0.0177 0.0382,-0.0663 -0.0251,-0.0495 0.0471,-0.15686 0.28421,-0.42266 0.30157,-0.33809 0.45549,-0.42923 0.44259,-0.26208 -0.003,0.0429 0.0243,0.0713 0.0693,0.0713 0.0418,0 0.0748,-0.0305 0.0748,-0.0691 0,-0.038 0.0223,-0.0601 0.0495,-0.0491 0.0272,0.011 0.0451,0.0421 0.0396,0.0691 -0.0121,0.0599 0.0504,0.0633 0.14427,0.008 0.0384,-0.0226 0.11731,-0.0482 0.17544,-0.0568 0.0606,-0.009 0.14378,-0.0721 0.19497,-0.14812 0.0491,-0.0729 0.11601,-0.16302 0.14868,-0.20031 0.10889,-0.12426 0.19802,-0.25279 0.19802,-0.28554 0,-0.0178 0.0548,-0.0894 0.12173,-0.15903 0.12335,-0.12834 0.49247,-0.70464 0.54093,-0.84456 0.0145,-0.042 0.0419,-0.0959 0.0607,-0.11992 0.18977,-0.24145 0.94644,-2.00979 1.11558,-2.60712 0.13359,-0.47178 0.22044,-0.6658 0.22044,-0.49247 0,0.0389 0.0162,0.0596 0.0359,0.0462 0.0198,-0.0135 0.0262,0.0198 0.0144,0.0738 -0.0159,0.0728 -0.01,0.0862 0.0242,0.0516 0.0538,-0.0549 0.16624,-0.47028 0.30055,-1.11023 0.15215,-0.72492 0.19097,-1.31506 0.1687,-2.56426 -0.02,-1.12269 -0.0828,-1.70462 -0.30507,-2.82753 -0.20632,-1.04237 -0.97043,-3.10905 -1.52384,-4.12155 -1.17507,-2.14983 -3.15433,-4.10592 -5.06221,-5.00294 -0.19102,-0.0898 -0.35839,-0.18307 -0.37194,-0.20724 -0.0136,-0.0242 -0.0484,-0.18143 -0.0774,-0.34947 -0.0607,-0.35121 -0.57028,-1.51529 -0.77694,-1.77487 -0.42385,-0.53239 -1.7115,-1.41894 -2.28775,-1.57512 -0.098,-0.0266 -0.43663,-0.0647 -0.75247,-0.0848 -0.32787,-0.0208 -0.75268,-0.0797 -0.9901,-0.13706 -0.57594,-0.13923 -0.96262,-0.12928 -1.54657,0.0398 -0.45493,0.13174 -1.01216,0.35337 -1.16948,0.46515 -0.0453,0.0322 -0.24135,0.12024 -0.43564,0.19566 -0.35923,0.13943 -0.97451,0.48018 -1.26324,0.69958 -0.16213,0.1232 -0.44059,0.43808 -0.69821,0.78953 -0.0786,0.10717 -0.22771,0.24298 -0.33144,0.30179 -0.30495,0.17289 -0.55458,0.46354 -0.70446,0.82023 l -0.13342,0.31752 -3.01671,-0.002 c -2.97092,-0.002 -3.01792,-2.6e-4 -3.09639,0.0862 -0.0572,0.063 -0.0799,0.14648 -0.0805,0.29521 -4.5e-4,0.11405 -5.6e-4,1.91651 -2.4e-4,4.00545 3e-4,2.08895 -0.0161,4.01766 -0.0365,4.28602 -0.059,0.77736 -0.28581,1.42073 -0.68479,1.94232 -0.0901,0.11773 -0.38247,0.40113 -0.6498,0.62977 -0.57556,0.49226 -0.78208,0.73432 -0.97904,1.14749 -0.49691,1.04239 -0.36837,2.20866 0.32821,2.97793 0.14331,0.15827 0.42037,0.40122 0.61568,0.53991 0.75908,0.53899 1.09782,1.06449 1.33105,2.0649 0.0754,0.32335 0.0789,0.49259 0.0818,3.90689 l 0.003,3.56889 h 0.12977 0.12976 z m -0.21897,0.49648 c 0,-0.50467 0.0116,-0.63832 0.0594,-0.68202 0.0523,-0.0478 0.0594,0.0133 0.0594,0.5098 0,0.39136 -0.0152,0.58186 -0.0495,0.62199 -0.0396,0.0463 -0.0396,0.0618 0,0.0779 0.0691,0.0279 0.062,0.10005 -0.01,0.10005 -0.05,0 -0.0594,-0.0989 -0.0594,-0.62767 z m 11.35429,-0.33794 c -0.77536,-0.0823 -1.98875,-0.41897 -2.82643,-0.78416 -0.55337,-0.24125 -1.75168,-0.92664 -2.09222,-1.19669 -1.36857,-1.08525 -1.80437,-1.56083 -2.83873,-3.09789 -0.99979,-1.48568 -1.59679,-3.18765 -1.85364,-5.28444 -0.0649,-0.52988 -0.0543,-2.08818 0.0191,-2.79519 0.11763,-1.13359 0.4289,-2.41562 0.82119,-3.38216 0.13602,-0.33515 0.54491,-1.28159 0.60825,-1.40791 0.0541,-0.10797 0.054,-0.12006 -10e-4,-0.12006 -0.0339,0 -0.0616,0.0295 -0.0616,0.0655 0,0.036 -0.0267,0.0655 -0.0594,0.0655 -0.0327,0 -0.0591,0.0344 -0.0588,0.0764 5.2e-4,0.0659 0.006,0.0674 0.0426,0.0109 0.0373,-0.0582 0.0402,-0.0582 0.0258,0 -0.009,0.036 -0.0355,0.0655 -0.0591,0.0655 -0.0236,0 -0.0563,0.0147 -0.0726,0.0327 -0.0163,0.018 -0.009,0.0327 0.0165,0.0327 0.0254,0 0.0462,0.0208 0.0462,0.0462 0,0.0254 -0.0178,0.0341 -0.0396,0.0192 -0.022,-0.015 -0.0399,0.0179 -0.0402,0.0738 -5.1e-4,0.0834 -0.008,0.0895 -0.043,0.0353 -0.0344,-0.053 -0.0389,-0.0474 -0.0237,0.0295 0.0142,0.0719 0.004,0.0887 -0.0421,0.0692 -0.0495,-0.0209 -0.0558,-0.002 -0.0339,0.10149 0.0159,0.0752 0.0131,0.10441 -0.007,0.0714 -0.0248,-0.0408 -0.0478,-0.0231 -0.0853,0.0655 -0.0858,0.20255 -0.2456,0.72776 -0.24525,0.80597 1.8e-4,0.0404 -0.0247,0.0964 -0.0554,0.12444 -0.0306,0.028 -0.0668,0.11638 -0.0804,0.19634 -0.0221,0.1299 -0.13577,0.25553 -0.13577,0.15006 0,-0.0233 0.0189,-0.0423 0.0419,-0.0423 0.0231,0 0.0311,-0.0194 0.0177,-0.0432 -0.0133,-0.0238 0.002,-0.10724 0.034,-0.18554 0.032,-0.0783 0.0975,-0.27006 0.14552,-0.42613 0.11206,-0.36423 0.46895,-1.17872 0.51648,-1.17872 0.02,0 0.0364,-0.0281 0.0364,-0.0624 0,-0.0343 0.0232,-0.0883 0.0516,-0.12005 0.0284,-0.0317 0.12955,-0.21371 0.22479,-0.40441 0.0952,-0.19069 0.2292,-0.41661 0.29768,-0.50204 0.0685,-0.0854 0.17459,-0.22929 0.2358,-0.31969 0.0943,-0.13922 0.12071,-0.15591 0.17296,-0.10914 0.0521,0.0466 0.0577,0.0435 0.0359,-0.0205 -0.0277,-0.0815 0.094,-0.18654 0.15066,-0.1301 0.0172,0.0172 0.0193,0.008 0.005,-0.0203 -0.0147,-0.0284 -0.008,-0.0644 0.0151,-0.0801 0.023,-0.0157 0.0324,-0.0711 0.0208,-0.12307 -0.0116,-0.052 -0.0108,-0.07 0.002,-0.04 0.026,0.0624 0.16129,0.0741 0.18116,0.0157 0.007,-0.0213 0.2071,-0.26091 0.44409,-0.53237 0.237,-0.27146 0.45371,-0.55336 0.48159,-0.62644 l 0.0507,-0.13288 0.022,0.1523 c 0.0121,0.0838 0.0397,0.31139 0.0613,0.50586 0.0339,0.30476 0.0674,0.4072 0.24245,0.74215 0.11172,0.21373 0.22283,0.3964 0.24692,0.40595 0.0241,0.01 0.0847,0.0625 0.13476,0.11763 0.0956,0.10543 0.0906,0.19315 -0.0193,0.33417 -0.051,0.0655 -0.0528,0.12871 -0.0121,0.44871 0.0458,0.36121 0.0248,0.56934 -0.0393,0.38892 -0.0252,-0.0709 -0.0304,-0.0725 -0.0328,-0.01 -0.002,0.0512 -0.0492,0.083 -0.1513,0.10181 -0.2469,0.0455 -0.23985,0.0568 0.0377,0.0604 l 0.26542,0.003 0.15351,0.3611 c 0.14578,0.34293 0.17129,0.37565 0.50685,0.65027 0.51414,0.42077 0.9952,0.68127 1.37315,0.74359 0.16881,0.0278 0.30693,0.067 0.30693,0.0871 0,0.0201 -0.0555,0.0736 -0.12324,0.11909 -0.0678,0.0454 -0.33066,0.29611 -0.58416,0.55704 -0.52768,0.54313 -0.80876,0.79541 -0.77356,0.69429 0.0217,-0.0624 -0.11871,-0.0692 -1.42569,-0.0692 -1.2194,0 -1.44978,0.01 -1.44978,0.0614 0,0.0387 0.0276,0.0534 0.0747,0.0399 0.0411,-0.0119 0.0867,-2e-4 0.10134,0.0259 0.0146,0.0261 0.003,0.0505 -0.0252,0.0543 -0.0285,0.004 0.0729,0.021 0.22538,0.0382 0.44142,0.0499 2.17923,0.0479 2.29995,-0.003 0.191,-0.0801 0.13926,-0.0196 -0.12864,0.15021 -0.3164,0.2006 -0.76521,0.37489 -0.96537,0.37489 -0.18569,0 -0.39405,0.0452 -0.39405,0.0855 0,0.017 0.10198,0.0156 0.22664,-0.003 0.12465,-0.0186 0.23162,-0.0284 0.2377,-0.0217 0.0291,0.032 -0.93821,0.47193 -1.39504,0.63443 -0.28317,0.10073 -0.6396,0.24309 -0.79208,0.31635 -0.15247,0.0733 -0.36633,0.17469 -0.47524,0.22539 -0.10891,0.0507 -0.20392,0.096 -0.21113,0.10056 -0.007,0.005 0.007,0.0494 0.0311,0.0994 0.0265,0.0547 0.0834,0.091 0.14224,0.091 0.1589,0 0.79295,-0.16711 1.09999,-0.28993 0.15639,-0.0626 0.40018,-0.15769 0.54177,-0.21141 0.52784,-0.20031 1.38614,-0.60574 2.00892,-0.94895 l 0.64258,-0.35413 0.70395,-0.80321 c 0.38718,-0.44177 0.76018,-0.84168 0.8289,-0.88869 0.12154,-0.0832 0.13071,-0.0834 0.33663,-0.008 0.17204,0.0629 0.2093,0.0937 0.19891,0.1647 -0.0316,0.21562 -0.0534,1.70144 -0.0283,1.92321 0.0245,0.21606 0.0533,0.27744 0.23252,0.49612 0.11251,0.13725 0.34422,0.42013 0.51489,0.62862 0.17068,0.20849 0.33897,0.37907 0.37399,0.37907 0.0705,0 1.63252,-1.69312 1.63252,-1.76957 0,-0.0264 -0.12921,-0.0818 -0.28713,-0.12303 -0.57688,-0.15069 -1.42699,-0.68367 -1.98332,-1.24346 -0.1562,-0.15717 -0.28846,-0.29675 -0.29391,-0.31019 -0.005,-0.0134 0.30643,-0.0244 0.69307,-0.0244 0.6159,0 0.74193,-0.0124 1.01748,-0.10039 0.55755,-0.17795 1.25829,-0.62421 1.42769,-0.90919 0.068,-0.11447 0.0679,-0.28315 -2.1e-4,-0.30782 -0.0221,-0.008 -0.16468,0.0865 -0.31683,0.21004 -0.81739,0.66356 -1.78236,0.85731 -3.2344,0.6494 -0.71122,-0.10184 -0.92953,-0.15971 -1.36235,-0.3611 -0.74471,-0.34653 -1.18981,-0.83979 -1.34876,-1.49472 -0.0692,-0.28527 -0.0673,-0.40636 0.0119,-0.76846 l 0.0659,-0.30074 -0.24526,-0.28154 c -0.29588,-0.33966 -0.42678,-0.63728 -0.48975,-1.11358 -0.0399,-0.30183 -0.0372,-0.41895 0.0176,-0.75806 0.11101,-0.68659 0.31209,-1.65621 0.39553,-1.90723 0.0439,-0.13205 0.17408,-0.5323 0.28929,-0.88943 0.23257,-0.72091 0.26955,-0.77806 0.68206,-1.05398 0.19126,-0.12794 0.3231,-0.26014 0.45917,-0.46045 0.292,-0.42986 0.34809,-0.49588 0.5616,-0.66105 0.21884,-0.16929 1.00718,-0.59949 1.28892,-0.70336 0.099,-0.0365 0.30396,-0.1363 0.45545,-0.22178 0.25079,-0.14151 1.03157,-0.42139 1.42395,-0.51044 0.24662,-0.056 0.54094,-0.046 0.76034,0.0259 0.32529,0.10649 0.58977,0.15302 1.23966,0.21812 0.46744,0.0468 0.69415,0.0917 0.95049,0.18816 0.4316,0.16241 0.79492,0.36542 0.98137,0.54835 0.081,0.0795 0.28445,0.24576 0.45202,0.36945 0.36708,0.27095 0.44317,0.37617 0.74997,1.03713 0.54848,1.18163 0.63311,1.90672 0.40715,3.48859 -0.11069,0.77498 -0.52059,1.51816 -1.44468,2.61937 -0.20149,0.24011 -0.40171,0.52496 -0.44493,0.63301 -0.0432,0.10805 -0.11241,0.24434 -0.15375,0.30286 -0.063,0.0891 -0.066,0.11205 -0.0187,0.1412 0.031,0.0191 0.56197,0.0476 1.17985,0.0633 0.94573,0.024 1.14537,0.0183 1.26212,-0.0362 0.12513,-0.0584 0.15415,-0.0574 0.29703,0.0107 0.2917,0.13892 0.45561,0.42762 0.45515,0.80162 -3.5e-4,0.28749 -0.0703,0.48896 -0.21994,0.63382 l -0.13903,0.13456 h -0.49493 c -0.27221,0 -0.85526,-0.0315 -1.29565,-0.07 -0.88162,-0.0771 -2.57386,-0.0665 -2.64924,0.0166 -0.10891,0.12005 0.34975,0.216 1.19505,0.24999 0.33763,0.0136 0.73906,0.0351 0.89207,0.0478 0.26743,0.0223 0.282,0.0294 0.37624,0.18409 0.17814,0.2924 1.78175,2.0164 1.95587,2.10272 1.94954,0.96641 3.31031,1.49241 4.01345,1.55138 0.2348,0.0197 0.22146,-0.0787 -0.0297,-0.21898 -0.10891,-0.0608 -0.19802,-0.12078 -0.19802,-0.13321 0,-0.0124 0.0891,-0.01 0.19802,0.006 0.11432,0.0167 0.19802,0.0118 0.19802,-0.0116 0,-0.0439 -0.41838,-0.16207 -0.83168,-0.23497 -0.29916,-0.0528 -1.10147,-0.34015 -1.44554,-0.5178 l -0.23763,-0.12268 0.27723,0.0191 c 0.20236,0.0139 0.26118,0.007 0.21782,-0.0272 -0.049,-0.0382 -0.0434,-0.0464 0.032,-0.0469 0.0508,-3.7e-4 0.0806,-0.0201 0.067,-0.0443 -0.0135,-0.024 0.0107,-0.0437 0.0538,-0.0437 0.043,0 0.0864,0.0246 0.0964,0.0546 0.0145,0.0437 0.0286,0.0437 0.0706,0 0.036,-0.0374 0.20165,-0.0546 0.52641,-0.0546 0.26066,0 0.46168,-0.0135 0.44673,-0.03 -0.015,-0.0165 -0.54813,-0.0336 -1.18482,-0.038 l -1.15762,-0.008 -0.33664,-0.13697 c -0.18515,-0.0753 -0.38664,-0.18103 -0.44776,-0.23487 l -0.11112,-0.0979 1.70994,0.0152 c 1.23559,0.011 1.70248,0.002 1.68304,-0.0328 -0.0148,-0.0264 -0.0526,-0.048 -0.084,-0.048 -0.0314,0 -0.0571,-0.0274 -0.0571,-0.0608 0,-0.0335 -0.0279,-0.0726 -0.062,-0.087 -0.11198,-0.0474 -2.88069,-0.11602 -3.17921,-0.0788 -0.27656,0.0345 -0.29903,0.0304 -0.46162,-0.0833 -0.094,-0.0657 -0.24366,-0.22422 -0.33257,-0.35224 -0.0889,-0.12802 -0.34009,-0.41763 -0.55818,-0.64357 -0.21809,-0.22595 -0.39653,-0.42848 -0.39653,-0.45006 0,-0.0216 0.0162,-0.0282 0.0359,-0.0147 0.0198,0.0135 0.35821,0.0461 0.75209,0.0725 l 0.71615,0.048 0.17317,-0.11187 c 0.0952,-0.0615 0.22911,-0.1821 0.29748,-0.26794 0.13507,-0.16958 0.32219,-0.54759 0.32219,-0.65088 0,-0.0354 0.0185,-0.077 0.0412,-0.0924 0.0269,-0.0183 0.0319,0.0127 0.0145,0.0894 -0.018,0.0791 -0.009,0.13001 0.0281,0.15579 0.0519,0.0362 1.92811,0.0587 1.89315,0.0226 -0.0204,-0.021 -1.03595,-0.0668 -1.52586,-0.0688 l -0.36085,-10e-4 0.0186,-0.10694 c 0.016,-0.0921 0.0441,-0.10918 0.20243,-0.1231 0.13903,-0.0122 0.11539,-0.0181 -0.0969,-0.024 l -0.28079,-0.008 -0.0492,-0.30354 c -0.0464,-0.28613 -0.23605,-0.70055 -0.3206,-0.70055 -0.0691,0 -0.27654,-0.22979 -0.27654,-0.30631 0,-0.0442 0.0579,-0.1328 0.12871,-0.19701 0.0708,-0.0642 0.10369,-0.10189 0.0731,-0.0837 -0.0368,0.0218 -0.0461,0.016 -0.0274,-0.0174 0.0155,-0.0277 0.0539,-0.0504 0.0853,-0.0504 0.0314,0 0.0576,-0.0147 0.0582,-0.0327 6.1e-4,-0.018 0.0711,-0.11946 0.1567,-0.22546 0.18499,-0.22915 0.21601,-0.35618 0.17929,-0.73417 -0.0223,-0.22932 -0.0769,-0.38994 -0.28405,-0.83462 -0.27998,-0.60115 -0.28556,-0.64412 -0.13252,-1.02092 0.1044,-0.25704 0.04,-0.3109 -0.14167,-0.11844 -0.20097,0.21294 -0.25412,0.34874 -0.25412,0.64927 0,0.19501 0.0325,0.3507 0.12572,0.60244 0.0951,0.25667 0.12645,0.4097 0.12871,0.62742 0.003,0.27893 -0.004,0.29944 -0.2184,0.65484 -0.29315,0.48583 -0.32867,0.60981 -0.25926,0.90479 l 0.0542,0.23033 -0.0969,-0.1003 c -0.0927,-0.096 -0.13306,-0.10154 -0.93529,-0.12884 -0.46114,-0.0157 -0.84289,-0.0305 -0.84834,-0.0328 -0.075,-0.0322 0.50399,-0.81916 0.60267,-0.81916 0.0334,0 0.0607,0.0164 0.0607,0.0364 0,0.02 0.0173,0.0364 0.0384,0.0364 0.0211,0 0.028,-0.0297 0.0154,-0.066 -0.0146,-0.0419 -0.003,-0.0604 0.031,-0.0508 0.0296,0.008 0.0404,0.007 0.024,-0.003 -0.0165,-0.0101 -0.0199,-0.0364 -0.008,-0.0583 0.0331,-0.0591 -0.0376,-0.0485 -0.0975,0.0147 -0.0285,0.03 -0.0134,-0.0299 0.0335,-0.13323 0.047,-0.10329 0.16479,-0.27405 0.26179,-0.37946 0.097,-0.10542 0.17636,-0.21047 0.17636,-0.23346 0,-0.023 0.0648,-0.14692 0.1439,-0.27539 0.28761,-0.46686 0.45677,-1.06511 0.51354,-1.81612 0.015,-0.19809 0.0326,-0.36016 0.0392,-0.36016 0.0947,0 0.85501,0.59648 1.6839,1.32102 0.60856,0.53194 0.54678,0.49139 0.6216,0.40803 0.0632,-0.0704 0.0627,-0.073 -0.009,-0.0431 -0.0611,0.0255 -0.071,0.0169 -0.05,-0.0436 0.0165,-0.0474 0.0107,-0.0648 -0.0156,-0.0468 -0.023,0.0157 -0.0512,-0.008 -0.0627,-0.0523 -0.0332,-0.12862 -0.24735,-0.29878 -0.30125,-0.23935 -0.0334,0.0368 -0.0292,0.0494 0.0163,0.0494 0.0337,0 0.0907,0.0359 0.12674,0.0798 0.0868,0.10575 0.0841,0.15652 -0.004,0.071 -0.18402,-0.17905 -0.41756,-0.36913 -0.45352,-0.36913 -0.0221,0 -0.0303,-0.028 -0.0184,-0.0623 0.0119,-0.0343 -0.004,-0.0858 -0.0354,-0.11449 -0.0405,-0.037 -0.057,-0.0379 -0.057,-0.003 0,0.0269 0.0208,0.049 0.0462,0.049 0.0254,0 0.0355,0.0118 0.0224,0.0263 -0.0131,0.0145 -0.061,-0.002 -0.10647,-0.0375 -0.0669,-0.0516 -0.0726,-0.0729 -0.0302,-0.11176 0.0697,-0.0638 0.22652,-0.0154 0.22652,0.0699 0,0.0372 0.0115,0.055 0.0256,0.0395 0.073,-0.0805 1.43977,1.25699 1.43977,1.40894 0,0.0405 -0.19794,-0.16823 -0.39951,-0.42138 -0.0732,-0.0919 -0.27141,-0.27977 -0.27881,-0.26421 -0.003,0.006 -0.0106,0.0597 -0.0173,0.11976 -0.01,0.0868 0.0455,0.16944 0.2701,0.40373 0.19907,0.2077 0.29159,0.27851 0.31372,0.2401 0.0214,-0.0371 0.0316,-0.0261 0.032,0.0345 8.5e-4,0.12343 0.20635,0.38304 0.30986,0.39145 0.0669,0.005 0.0759,-0.006 0.0417,-0.0512 -0.0241,-0.032 -0.0661,-0.0581 -0.0935,-0.0581 -0.0273,0 -0.0687,-0.0253 -0.092,-0.0561 -0.0319,-0.0423 -0.024,-0.0561 0.0319,-0.0561 0.0408,0 0.0654,0.0154 0.0549,0.0343 -0.0106,0.0189 0.013,0.0355 0.0524,0.0369 0.0394,10e-4 0.13024,0.085 0.20185,0.18554 0.0716,0.10059 0.20702,0.29094 0.3009,0.423 0.0939,0.13206 0.19898,0.29904 0.23354,0.37108 0.0346,0.072 0.10965,0.18541 0.16685,0.25196 0.23695,0.27569 1.25264,2.5527 1.24631,2.79405 -0.002,0.0698 -0.11416,-0.14652 -0.116,-0.2234 -0.002,-0.0714 -1.00805,-2.28946 -1.12219,-2.47336 -0.0447,-0.072 -0.088,-0.14023 -0.0963,-0.15154 -0.008,-0.0113 -0.033,0.008 -0.055,0.0437 -0.0316,0.0507 -0.0355,0.0459 -0.0186,-0.0231 0.0277,-0.11263 -0.0315,-0.21826 -0.0972,-0.17348 -0.0319,0.0217 -0.0403,0.0166 -0.0231,-0.0142 0.0204,-0.0365 -0.13841,-0.3172 -0.27131,-0.47949 -0.006,-0.007 -0.0526,-0.0207 -0.10453,-0.031 l -0.0945,-0.0187 0.0908,0.0832 c 0.05,0.0458 0.0902,0.099 0.0894,0.11832 -8.1e-4,0.0193 0.0618,0.13334 0.13906,0.25339 0.57369,0.89098 1.29384,2.43832 1.534,3.29604 0.48046,1.71593 0.60919,2.63187 0.57061,4.06003 -0.0624,2.3103 -0.51231,3.9766 -1.58267,5.8618 -1.22285,2.15376 -2.93265,3.80497 -4.88081,4.71354 -0.77945,0.36352 -1.79543,0.70612 -2.48598,0.8383 -0.76367,0.14618 -2.06654,0.19412 -2.8924,0.10643 z m 0.82393,-0.8243 c 0.0135,-0.024 0.006,-0.0436 -0.0175,-0.0436 -0.0231,0 -0.0419,0.0196 -0.0419,0.0436 0,0.024 0.008,0.0437 0.0175,0.0437 0.01,0 0.0285,-0.0196 0.0419,-0.0437 z m -1.36693,-0.0853 c 0.0541,-0.0458 0.0865,-0.0965 0.0719,-0.11258 -0.0146,-0.0161 -0.0765,0.0219 -0.13762,0.0843 -0.1283,0.13114 -0.0802,0.15184 0.0657,0.0283 z m -0.31902,-0.11997 c 0.004,0.0552 0.31494,-0.19675 0.60674,-0.49222 0.14703,-0.14887 0.26733,-0.24929 0.26733,-0.22316 0,0.0261 -0.0178,0.0475 -0.0396,0.0475 -0.0218,0 -0.0352,0.018 -0.0297,0.0401 0.005,0.0221 -0.0747,0.13967 -0.17822,0.26137 -0.25084,0.29505 -0.25655,0.445 -0.007,0.17693 0.22365,-0.23999 0.37716,-0.51871 0.38166,-0.69296 0.003,-0.13515 -0.065,-0.26565 -0.13939,-0.26565 -0.0395,0 -0.8223,0.88604 -0.92859,1.0511 -0.0272,0.0423 -0.0375,0.11141 -0.0228,0.15362 0.0248,0.0712 0.0289,0.0707 0.0566,-0.007 0.0164,-0.0463 0.0311,-0.0684 0.0327,-0.0493 z m -0.53187,-0.39662 c 0.10891,-0.10877 0.22411,-0.22412 0.25601,-0.25633 0.0869,-0.0877 -0.0108,-0.0707 -0.10219,0.0178 -0.14363,0.13901 -0.2842,0.22436 -0.48056,0.29179 -0.063,0.0216 -0.0891,0.0128 -0.0891,-0.03 0,-0.0334 0.0936,-0.10664 0.20792,-0.16286 0.11436,-0.0562 0.30837,-0.19724 0.43113,-0.31338 0.23726,-0.22447 0.34494,-0.2744 0.27324,-0.12672 -0.0736,0.15166 -0.0441,0.13519 0.17276,-0.0963 0.35645,-0.38057 0.41986,-0.63444 0.1984,-0.79439 -0.19946,-0.14407 -0.33836,-0.0666 -0.82969,0.46261 -0.24475,0.26363 -0.48659,0.56575 -0.53742,0.67137 l -0.0924,0.19204 0.0808,0.12212 c 0.0444,0.0672 0.0929,0.15786 0.10765,0.20153 0.0388,0.11475 0.16547,0.0585 0.40347,-0.17925 z m 2.47524,0.19125 c 0,-0.0338 -0.1292,-0.19337 -0.28713,-0.35466 l -0.28712,-0.29327 -0.0257,0.25644 c -0.0141,0.14103 -0.0164,0.27314 -0.005,0.29357 0.0113,0.0204 0.0719,0.0258 0.1346,0.012 0.0632,-0.014 0.11401,-0.006 0.11401,0.0174 0,0.0234 0.0524,0.0426 0.11647,0.0426 0.0641,0 0.12749,0.0197 0.14095,0.0437 0.0361,0.0643 0.099,0.0531 0.099,-0.0177 z m 1.15001,-0.52995 c 0.0279,-0.0371 0.0747,-0.0574 0.10386,-0.045 0.0328,0.0139 0.0531,-0.009 0.0531,-0.0598 0,-0.10189 -0.47884,-0.59416 -1.0099,-1.03825 -0.66207,-0.55363 -0.77227,-0.69517 -0.77227,-0.99187 0,-0.13247 0.0132,-0.15497 0.0908,-0.15497 0.0515,0 0.19298,0.0953 0.32673,0.22011 0.38273,0.3571 1.24779,1.00227 1.34387,1.00227 0.0332,0 0.0609,0.0344 0.0616,0.0764 0.001,0.0703 0.005,0.0699 0.0437,-0.004 0.0305,-0.0578 0.0301,-0.0943 -10e-4,-0.12879 -0.10315,-0.1137 -0.0305,-0.10483 0.12461,0.0152 0.0926,0.0716 0.2817,0.21833 0.42028,0.32594 0.13858,0.10762 0.29452,0.19567 0.34653,0.19567 0.0625,0 0.0956,0.0259 0.0977,0.0764 0.002,0.0456 0.0112,0.0544 0.0231,0.0218 0.0296,-0.0809 0.0925,-0.0661 0.0932,0.0218 4.8e-4,0.0611 0.008,0.0642 0.0356,0.0155 0.11016,-0.19176 -0.24734,-0.71104 -0.94706,-1.37563 -0.39823,-0.37825 -1.82939,-1.58613 -2.24913,-1.89825 -0.28298,-0.21042 -0.62708,-0.39682 -0.73374,-0.39745 -0.0396,-2.3e-4 -0.17325,0.091 -0.29703,0.20268 -0.40744,0.36771 -0.95838,0.5804 -1.35055,0.52138 -0.38135,-0.0574 -0.67648,-0.37074 -0.67648,-0.71823 0,-0.17106 0.0155,-0.19431 0.3156,-0.47424 0.17358,-0.1619 0.30278,-0.30643 0.28713,-0.32119 -0.043,-0.0405 -1.51368,-0.34589 -1.66567,-0.34589 -0.21233,0 -0.7583,0.74502 -1.11046,1.51531 -0.10363,0.22668 -0.1041,0.24691 -0.005,0.21838 0.0581,-0.0168 0.11266,0.0243 0.20717,0.15581 0.20599,0.28669 0.60118,0.67937 0.85476,0.84932 0.12244,0.0821 0.12663,0.0925 0.0646,0.16085 -0.13091,0.14431 -0.0227,0.11189 0.27575,-0.0826 0.16708,-0.10888 0.38459,-0.21793 0.48337,-0.24233 0.32583,-0.0805 0.61871,0.0711 0.77029,0.39857 l 0.0792,0.17103 0.12419,-0.0708 c 0.0683,-0.0389 0.22377,-0.0797 0.34549,-0.0906 0.34497,-0.0309 0.58021,0.17429 0.62537,0.5454 l 0.0207,0.17011 0.26546,-0.0209 c 0.39318,-0.031 0.58664,0.10142 0.69281,0.47428 0.0534,0.18769 0.0548,0.18882 0.0586,0.0502 0.002,-0.078 0.0212,-0.14188 0.0422,-0.14188 0.0211,0 0.17139,0.12792 0.33402,0.28426 0.16262,0.15634 0.30614,0.2656 0.31893,0.24279 0.0128,-0.0228 -0.008,-0.0617 -0.0469,-0.0865 -0.065,-0.0417 -0.0643,-0.0451 0.009,-0.0462 0.0918,-10e-4 0.3417,0.15571 0.3881,0.24391 0.0174,0.0331 0.0533,0.0602 0.0798,0.0602 0.0811,0 0.35703,0.17629 0.48335,0.30876 0.10705,0.11226 0.36069,0.24751 0.47954,0.25569 0.0246,0.002 0.0675,-0.0273 0.0955,-0.0644 z m -1.68466,-0.84931 c -0.0135,-0.024 -0.0136,-0.0631 -2.7e-4,-0.0868 0.0144,-0.0256 -0.003,-0.0315 -0.0438,-0.0144 -0.0436,0.0185 -0.0585,0.0118 -0.0414,-0.0186 0.0146,-0.026 0.004,-0.0562 -0.0232,-0.0669 -0.0274,-0.0108 -0.0374,-0.0342 -0.0223,-0.0521 0.0217,-0.0258 0.17415,0.065 0.30806,0.18348 0.0203,0.0179 -0.0807,0.0973 -0.12522,0.0984 -0.0151,3.6e-4 -0.0384,-0.019 -0.0519,-0.043 z m -1.52475,0.78581 c 0,-0.024 -0.008,-0.0437 -0.0175,-0.0437 -0.01,0 -0.0285,0.0197 -0.0419,0.0437 -0.0135,0.024 -0.006,0.0437 0.0175,0.0437 0.0231,0 0.0419,-0.0197 0.0419,-0.0437 z m -1.90099,-0.34284 c 0,-0.0205 0.089,-0.0278 0.19781,-0.0163 0.13018,0.0138 0.21923,0.001 0.26045,-0.0363 0.0519,-0.0475 0.0685,-0.0469 0.0968,0.004 0.0289,0.0516 0.0451,0.0507 0.1059,-0.006 0.79703,-0.74193 0.8836,-0.84525 0.8836,-1.05466 0,-0.0727 -0.0399,-0.16726 -0.0972,-0.23043 -0.13515,-0.14898 -0.32344,-0.14207 -0.52061,0.0191 -0.17672,0.14446 -0.84359,0.88949 -0.94097,1.05126 -0.0718,0.11932 -0.0873,0.3068 -0.0254,0.3068 0.0218,0 0.0396,-0.0168 0.0396,-0.0373 z m 9.66336,-0.87067 0.37624,-0.13013 -0.0126,-0.14674 c -0.0285,-0.33127 -0.6055,-1.90285 -0.91939,-2.50416 -0.3971,-0.7607 -0.80697,-1.41984 -0.89937,-1.44633 -0.0845,-0.0242 -0.76355,0.1051 -0.84572,0.16108 -0.0216,0.0148 0.066,0.20107 0.19692,0.41869 0.34395,0.57162 0.60839,1.16967 0.85611,1.93613 0.2322,0.71844 0.31768,1.09886 0.35807,1.59346 0.0137,0.16807 0.031,0.32778 0.0385,0.35491 0.0139,0.0509 0.0408,0.0435 0.85131,-0.23691 z m -0.40368,-0.3472 c -0.0991,-0.12721 -0.11315,-0.22677 -0.054,-0.38288 0.0616,-0.16258 0.22433,-0.24208 0.33508,-0.16373 0.0956,0.0676 0.084,0.48227 -0.0156,0.56261 -0.1012,0.0816 -0.19379,0.076 -0.26546,-0.016 z m -9.0671,0.0569 c 0.20973,-0.21281 0.25404,-0.32566 0.19775,-0.50366 -0.10892,-0.3444 -0.40354,-0.2885 -0.88175,0.16731 -0.28273,0.26949 -0.45908,0.52014 -0.45908,0.65252 0,0.0764 0.018,0.0799 0.22408,0.0443 0.12325,-0.0213 0.23757,-0.0479 0.25405,-0.0591 0.0165,-0.0112 0.039,0.004 0.0501,0.0344 0.0153,0.0416 0.0311,0.039 0.0654,-0.0106 0.0365,-0.0529 0.0401,-0.0455 0.0186,0.038 -0.0256,0.0997 -0.0195,0.0981 0.16572,-0.0421 0.10577,-0.0801 0.27006,-0.22454 0.36509,-0.32096 z m 6.90039,0.12648 c 0.23502,-0.13128 0.69948,-0.49989 0.62987,-0.49989 -0.0265,0 -0.17841,0.096 -0.3375,0.21326 -0.15909,0.1173 -0.37993,0.23888 -0.49076,0.27019 -0.11083,0.0313 -0.20151,0.0729 -0.20151,0.0923 0,0.0715 0.20605,0.0324 0.3999,-0.0759 z m -0.77721,-0.28352 c -0.0503,-0.0897 0.0602,-0.16728 0.20191,-0.14192 0.18506,0.0331 0.43512,-0.0787 0.65216,-0.29157 0.0972,-0.0953 0.18799,-0.17386 0.20179,-0.17454 0.0138,-6.9e-4 0.0341,-0.0393 0.0452,-0.0858 0.0159,-0.0672 0.0689,-0.0907 0.2572,-0.11417 0.31983,-0.0399 0.33352,-0.0529 0.27008,-0.25628 -0.0289,-0.0926 -0.0603,-0.14273 -0.0698,-0.11128 -0.01,0.0316 -0.0485,-0.0154 -0.0871,-0.10495 -0.0384,-0.0892 -0.0618,-0.18579 -0.052,-0.21472 0.01,-0.0289 0.0373,10e-4 0.0611,0.0675 0.0238,0.066 0.051,0.12006 0.0604,0.12006 0.0289,0 -0.0229,-0.18246 -0.14243,-0.50205 -0.0629,-0.16808 -0.14891,-0.40382 -0.19118,-0.52387 -0.0898,-0.255 -0.46286,-0.89105 -0.56089,-0.95624 -0.0473,-0.0315 -0.13613,-0.0276 -0.29702,0.0131 -0.12625,0.0319 -0.31431,0.0793 -0.41791,0.10542 -0.32484,0.0818 -0.72718,-0.0519 -2.34341,-0.77895 l -0.55158,-0.24811 -0.33951,0.0931 c -0.24869,0.0682 -1.16691,0.26182 -1.25798,0.2653 -0.004,1.6e-4 -0.0662,0.12307 -0.13778,0.27314 -0.0904,0.18938 -0.25157,0.40303 -0.52693,0.6984 -0.3319,0.35601 -0.38981,0.43762 -0.35443,0.49945 0.0528,0.0922 0.14333,0.13017 0.11476,0.0481 -0.0149,-0.0428 0.018,-0.063 0.11454,-0.0702 0.10849,-0.008 0.13435,0.005 0.12982,0.0674 -0.004,0.0559 0.0274,0.0809 0.11315,0.09 0.0803,0.008 0.1017,-1.7e-4 0.066,-0.0267 -0.0374,-0.0278 0.003,-0.0561 0.13862,-0.0972 0.10527,-0.0319 0.21814,-0.0612 0.25081,-0.0651 0.12725,-0.0151 0.13665,-0.0228 0.0792,-0.0643 -0.0521,-0.0377 -0.0523,-0.048 -0.001,-0.0843 0.032,-0.0227 0.0456,-0.0553 0.03,-0.0724 -0.0155,-0.0171 -0.008,-0.0575 0.0159,-0.0897 0.0507,-0.0673 0.13051,-0.0804 0.0941,-0.0154 -0.0145,0.0258 0.004,0.0314 0.0452,0.0138 0.041,-0.0174 0.0504,-0.0363 0.0229,-0.0464 -0.0538,-0.0198 0.0995,-0.27248 0.16537,-0.27248 0.0223,0 0.0769,-0.0495 0.12126,-0.10994 l 0.0807,-0.10994 0.48978,0.0675 c 0.26937,0.0371 0.52682,0.0893 0.57209,0.11604 0.0453,0.0267 0.2742,0.25055 0.50871,0.49742 0.24325,0.25607 0.48657,0.47285 0.56651,0.50471 0.13803,0.055 0.1874,0.12425 0.0906,0.12709 -0.0672,0.002 0.12313,0.17317 0.19251,0.17317 0.0303,0 0.055,0.0218 0.055,0.0484 0,0.0302 0.0384,0.0378 0.10233,0.0201 0.0572,-0.0158 0.0926,-0.011 0.0803,0.0109 -0.0121,0.0216 0.037,0.0743 0.10917,0.11707 0.10895,0.0647 0.19759,0.0743 0.52361,0.0569 0.33313,-0.0178 0.43326,-0.0418 0.66227,-0.15882 0.34523,-0.17638 0.46292,-0.20994 0.46272,-0.13196 -5.2e-4,0.20958 -0.38641,0.59135 -0.7253,0.71756 -0.19365,0.0721 -0.67562,0.0698 -0.89831,-0.004 -0.0788,-0.0262 -0.0667,-0.005 0.0594,0.10371 0.0871,0.0752 0.2208,0.18328 0.29703,0.24026 0.0762,0.057 0.29901,0.26227 0.49505,0.45622 0.36393,0.36004 0.40011,0.39181 0.35537,0.312 z m -1.32566,-1.83011 c 0.0465,-0.0394 0.0208,-0.0452 -0.11882,-0.0265 -0.098,0.0131 -0.15594,0.0126 -0.12871,-10e-4 0.0768,-0.0386 0.0583,-0.11801 -0.0198,-0.0852 -0.0468,0.0197 -0.0564,0.0147 -0.0294,-0.0153 0.027,-0.0301 0.12925,-0.0246 0.31684,0.017 0.15231,0.0338 0.33039,0.0693 0.39574,0.0789 0.0653,0.01 0.0178,0.0205 -0.10567,0.0241 -0.12347,0.004 -0.25713,0.0182 -0.29703,0.0325 -0.0615,0.022 -0.0635,0.0182 -0.0131,-0.0244 z m 0.67656,0.0264 c 0.009,-0.009 0.12344,-0.0267 0.25413,-0.0401 0.14762,-0.0151 0.20012,-0.0108 0.13861,0.0114 -0.0978,0.0353 -0.42468,0.0592 -0.39274,0.0287 z m 0.58334,-0.10137 c 0.0286,-0.0126 0.0627,-0.0111 0.0759,0.003 0.0132,0.0145 -0.0102,0.0248 -0.052,0.0229 -0.0461,-0.002 -0.0555,-0.0124 -0.0239,-0.0264 z m -5.06931,-0.52387 c 0.0286,-0.0126 0.0627,-0.0111 0.0759,0.003 0.0132,0.0145 -0.0102,0.0248 -0.052,0.0229 -0.0461,-0.002 -0.0555,-0.0124 -0.0239,-0.0264 z m -4.00359,1.14306 c 0.23266,-0.69736 0.86374,-1.80137 1.32578,-2.31934 0.15266,-0.17113 0.26236,-0.32113 0.24377,-0.33332 -0.0186,-0.0122 -0.20861,-0.0664 -0.42228,-0.12048 -0.4672,-0.11823 -0.47757,-0.1143 -0.84164,0.31916 -0.33783,0.40223 -0.83086,1.48159 -1.0066,2.20368 -0.17173,0.70569 -0.18117,0.66928 0.20704,0.79879 l 0.32673,0.10901 0.0326,-0.17596 c 0.018,-0.0968 0.0785,-0.31347 0.13458,-0.48154 z m 7.20386,-0.61113 c -0.005,-0.15144 -0.0368,-0.19324 -0.0839,-0.1092 -0.0135,0.024 -0.0457,0.0421 -0.0717,0.0402 -0.0285,-0.002 -0.0252,-0.0131 0.008,-0.0277 0.0408,-0.0178 0.0304,-0.0405 -0.0396,-0.0857 l -0.0951,-0.0615 0.0987,0.0299 c 0.0897,0.0272 0.0936,0.0231 0.0424,-0.0449 -0.031,-0.0412 -0.0888,-0.0655 -0.12841,-0.054 -0.0396,0.0114 -0.0721,-0.002 -0.0721,-0.0301 0,-0.028 -0.0341,-0.0744 -0.0758,-0.1031 -0.10264,-0.0707 -0.20032,0.0391 -0.11622,0.13055 0.0479,0.0521 0.52186,0.46809 0.53341,0.46816 0.003,10e-6 0.003,-0.0687 0,-0.15271 z m -2.77467,-0.43523 c 0.0423,-0.0353 0.0582,-0.0647 0.0353,-0.0655 -0.0229,-7.6e-4 -0.0585,0.0163 -0.0792,0.038 -0.0207,0.0217 -0.0733,0.0489 -0.11683,0.0604 -0.0773,0.0205 -0.0772,0.0211 0.002,0.0261 0.0448,0.003 0.11614,-0.0238 0.15842,-0.059 z m 2.16864,-0.0938 c -0.0184,-0.0529 -0.0305,-0.0555 -0.0551,-0.0116 -0.0371,0.0662 -0.007,0.1377 0.0435,0.10328 0.0193,-0.0132 0.0245,-0.0544 0.0116,-0.0917 z m 5.82427,-0.0932 c -0.17915,-0.44959 -0.25087,-0.64899 -0.25173,-0.69975 -5.2e-4,-0.0307 -0.0537,-0.17099 -0.11815,-0.31177 l -0.11721,-0.25595 0.18652,-0.0499 c 0.10258,-0.0274 0.43602,-0.12939 0.74097,-0.22654 1.16577,-0.37138 1.64853,-0.51543 2.39604,-0.71493 1.09901,-0.29332 1.47804,-0.41533 1.53465,-0.49398 0.0564,-0.0783 0.0678,-0.40134 0.0143,-0.40134 -0.0667,0 -0.80346,0.17425 -0.83892,0.19841 -0.0195,0.0133 -0.263,0.0825 -0.54106,0.15382 -0.62702,0.16078 -1.54107,0.43269 -2.52537,0.75125 -0.41386,0.13394 -0.90396,0.28501 -1.0891,0.3357 -0.48965,0.13407 -0.46797,0.11329 -0.31064,0.29763 0.19723,0.23107 0.61392,0.89302 0.79604,1.26455 0.16713,0.34098 0.22925,0.4177 0.1237,0.1528 z m -5.91603,0.0561 c 0,-0.0112 -0.0401,-0.0438 -0.0891,-0.0726 -0.0808,-0.0475 -0.084,-0.0456 -0.0348,0.0203 0.0506,0.0676 0.12387,0.0986 0.12387,0.0523 z m -0.67327,-0.43342 c 0,-0.009 -0.0267,-0.0285 -0.0594,-0.0423 -0.0327,-0.0138 -0.0594,-0.006 -0.0594,0.0172 0,0.0233 0.0267,0.0423 0.0594,0.0423 0.0327,0 0.0594,-0.008 0.0594,-0.0172 z m -0.15842,-0.0457 c 0,-0.0106 -0.0178,-0.0314 -0.0396,-0.0462 -0.0218,-0.0148 -0.0396,-0.006 -0.0396,0.0193 0,0.0254 0.0178,0.0462 0.0396,0.0462 0.0218,0 0.0396,-0.009 0.0396,-0.0192 z m -1.83692,-0.93329 c -0.0243,-0.044 -0.17549,-0.87177 -0.20076,-1.0993 -0.012,-0.10805 -0.0661,-0.55007 -0.1202,-0.98227 -0.10325,-0.82474 -0.13878,-1.33034 -0.23927,-3.40518 -0.0337,-0.69632 -0.0773,-1.30532 -0.0967,-1.35335 -0.0216,-0.0532 -0.0365,0.61798 -0.0381,1.71681 l -0.003,1.80413 -0.0919,0.0902 c -0.0944,0.0927 -0.53709,0.37052 -0.9576,0.60097 -0.1307,0.0716 -0.65754,0.27793 -1.17076,0.45845 -0.51323,0.18053 -0.96588,0.35462 -1.0059,0.38688 -0.0688,0.0554 -0.064,0.0717 0.0869,0.29459 0.0878,0.12977 0.18874,0.29929 0.22422,0.37672 0.0435,0.095 0.10623,0.15288 0.19273,0.17798 0.17389,0.0505 0.17881,-0.006 0.0318,-0.36309 -0.0663,-0.16116 -0.11161,-0.30891 -0.10071,-0.32835 0.0109,-0.0194 0.0775,-0.0491 0.14807,-0.0659 0.24558,-0.0584 1.39735,-0.4932 1.65369,-0.62424 0.1589,-0.0812 0.37611,-0.25051 0.56513,-0.44045 0.26827,-0.26956 0.46389,-0.38485 0.46389,-0.2734 0,0.1013 0.36342,2.14664 0.45059,2.53589 0.0559,0.24953 0.0931,0.46886 0.0827,0.48741 -0.022,0.0392 0.0661,0.0821 0.11094,0.0541 0.0167,-0.0104 0.023,-0.0323 0.0139,-0.0487 z m 5.95491,-0.13738 c 0.037,-0.0258 0.0544,-0.0942 0.0473,-0.18559 -0.006,-0.0796 0.0171,-0.3507 0.0517,-0.60242 0.0926,-0.67182 0.16995,-1.37101 0.19515,-1.763 0.0122,-0.18969 0.0299,-0.35335 0.0392,-0.3637 0.009,-0.0103 0.0531,0.002 0.0971,0.0284 0.12178,0.0718 0.14492,0.0567 0.064,-0.0418 -0.0688,-0.0838 -0.0732,-0.21161 -0.0755,-2.20462 -0.002,-1.85981 0.01,-2.24078 0.0636,-2.07521 0.007,0.0222 0.0934,0.13532 0.19142,0.25127 0.40489,0.47897 0.70038,0.96635 1.19493,1.97093 0.19707,0.40029 0.41873,0.82936 0.49258,0.95348 0.0739,0.12413 0.13357,0.25182 0.13271,0.28377 -8.7e-4,0.0319 -0.18244,0.20542 -0.40349,0.3855 -0.39074,0.31832 -0.50889,0.44776 -0.45894,0.50282 0.052,0.0573 1.16798,-0.63339 1.20767,-0.74742 0.039,-0.11212 -1.21048,-2.58448 -1.55734,-3.08146 -0.17792,-0.25492 -0.85249,-0.96468 -0.93708,-0.98597 -0.0356,-0.009 -0.0495,0.2878 -0.0564,1.20055 -0.009,1.20401 -0.0561,2.33634 -0.12842,3.08966 -0.0208,0.21609 -0.0662,0.71705 -0.10098,1.11323 -0.0348,0.39618 -0.088,0.90696 -0.11814,1.13506 -0.0302,0.2281 -0.0672,0.58663 -0.0823,0.79673 -0.0286,0.39843 -0.009,0.44469 0.14107,0.33982 z m -9.79765,-0.15547 c 0.0586,-0.0847 0.097,-0.16447 0.0854,-0.17729 -0.0202,-0.0223 -0.46544,-0.10258 -0.57891,-0.10441 -0.0438,-7.1e-4 -0.0448,0.0118 -0.005,0.0646 0.0271,0.036 0.0338,0.0661 0.0148,0.0669 -0.019,7.6e-4 2e-5,0.0302 0.0423,0.0655 0.0489,0.0408 0.0575,0.0641 0.0236,0.0641 -0.0319,0 -0.0166,0.035 0.0381,0.0873 0.13753,0.13148 0.25716,0.11048 0.37974,-0.0667 z m 7.55664,-0.0898 c 0.0148,-0.0425 0.006,-0.0625 -0.023,-0.0519 -0.0592,0.0218 -0.0918,0.12098 -0.0397,0.12098 0.0213,0 0.0495,-0.0311 0.0627,-0.0691 z m 0.50015,-0.71044 c 4.9e-4,-0.0154 0.0905,-0.13612 0.19992,-0.26818 0.25119,-0.30304 0.55301,-0.78615 0.66821,-1.06958 0.12024,-0.29581 0.32752,-0.98754 0.30376,-1.01372 -0.0105,-0.0116 -0.0807,0.11348 -0.15586,0.27801 -0.0752,0.16453 -0.16819,0.36791 -0.20671,0.45195 -0.11773,0.25684 -0.61571,1.18555 -0.7778,1.45056 -0.0858,0.14026 -0.12648,0.23882 -0.0927,0.22452 0.0331,-0.014 0.0607,-0.0381 0.0611,-0.0536 z m -2.71895,-0.0172 c -0.0163,-0.03 -0.1864,-0.33439 -0.37796,-0.6764 -0.19155,-0.34201 -0.40948,-0.75456 -0.48428,-0.91678 -0.0748,-0.16222 -0.16347,-0.33424 -0.19706,-0.38226 -0.0565,-0.0808 -0.0581,-0.0744 -0.0207,0.0873 0.14221,0.6149 0.30908,1.00781 0.55925,1.31684 0.43693,0.53968 0.60198,0.72077 0.52072,0.57129 z m 7.7151,-0.15586 c 0.0708,-0.0317 0.34949,-0.41291 0.34949,-0.47814 0,-0.0214 -0.19158,-0.10255 -0.42574,-0.18027 -0.23416,-0.0777 -0.77327,-0.26628 -1.19802,-0.41902 -0.77126,-0.27735 -1.14851,-0.37468 -1.14851,-0.29633 0,0.12543 0.2486,0.25864 0.99548,0.53342 0.44357,0.16318 0.94907,0.34205 1.12333,0.39747 0.17426,0.0554 0.32458,0.10758 0.33406,0.1159 0.009,0.008 -0.0521,0.0933 -0.13675,0.18895 -0.1475,0.16651 -0.14989,0.1737 -0.0568,0.17076 0.0534,-0.002 0.127,-0.0164 0.16349,-0.0327 z m -7.31699,-0.73844 c 0.0144,-0.21045 0.0715,-0.72998 0.12688,-1.15451 l 0.10073,-0.77187 -0.11747,-0.27588 c -0.0646,-0.15173 -0.1487,-0.38393 -0.18689,-0.51599 -0.0382,-0.13206 -0.0753,-0.24761 -0.0825,-0.25679 -0.007,-0.009 -0.11539,0.0864 -0.24043,0.21236 -0.26767,0.26966 -0.44321,0.37196 -0.5755,0.33536 -0.0936,-0.0259 -0.50549,-0.46989 -0.71412,-0.76982 -0.30632,-0.44034 -0.0667,0.23383 0.56809,1.59858 0.48019,1.03233 1.01374,2.0366 1.06386,2.00246 0.0172,-0.0117 0.043,-0.19345 0.0574,-0.4039 z m 2.1855,-0.0233 c 0.24455,-0.4346 0.74535,-1.44416 0.8314,-1.67599 0.0342,-0.0922 0.16644,-0.42302 0.29384,-0.73516 0.35802,-0.8772 0.35402,-0.90287 -0.0667,-0.42841 -0.49366,0.55666 -0.52087,0.55942 -0.97777,0.0991 -0.12791,-0.12886 -0.24174,-0.21215 -0.25985,-0.19012 -0.0177,0.0216 -0.0815,0.18654 -0.14182,0.36662 -0.0603,0.18008 -0.1449,0.39228 -0.18804,0.47155 l -0.0784,0.14414 0.10252,0.57619 c 0.0889,0.49968 0.2233,1.50886 0.2233,1.6767 0,0.11943 0.0666,0.0418 0.26159,-0.30463 z m -6.10453,-1.03357 c 0.0127,-0.0227 -0.15554,-0.19038 -0.3739,-0.37267 -0.21836,-0.18229 -0.39702,-0.35031 -0.39702,-0.37337 0,-0.0879 0.95264,-2.0137 1.18948,-2.40452 0.25732,-0.42461 0.74822,-1.0924 0.875,-1.19029 0.0399,-0.0308 0.10005,-0.12855 0.13366,-0.21721 0.15578,-0.41101 -0.21817,-0.12143 -0.87141,0.6748 -0.31941,0.38932 -0.6385,0.93875 -1.04955,1.80718 -0.15911,0.33615 -0.3495,0.72624 -0.42309,0.86687 -0.17476,0.33399 -0.2516,0.54059 -0.22716,0.6108 0.0175,0.0502 0.29238,0.2397 0.78555,0.54143 0.16817,0.10288 0.31924,0.1269 0.35844,0.057 z m -3.50957,-1.3602 c 0.41129,-0.13207 1.31358,-0.49241 2.00105,-0.79915 0.19333,-0.0863 0.37509,-0.15684 0.4039,-0.15684 0.0641,0 0.20215,-0.14182 0.3506,-0.36017 0.13157,-0.1935 0.0983,-0.20212 -0.23162,-0.0601 -0.1324,0.057 -0.52587,0.22678 -0.87439,0.37729 -1.11837,0.48298 -2.1357,0.82223 -2.81188,0.93767 -0.66613,0.11373 -0.61386,0.0862 -0.61386,0.32285 v 0.20654 l 0.6794,-0.16704 c 0.37367,-0.0919 0.86723,-0.22736 1.0968,-0.30108 z m 18.81013,0.23364 -0.0121,-0.20737 -0.43564,-0.0283 c -0.2396,-0.0156 -0.55148,-0.0612 -0.69307,-0.10134 -0.42434,-0.1204 -1.47455,-0.46208 -1.54155,-0.50153 -0.0343,-0.0202 -0.24063,-0.10683 -0.45845,-0.19248 -0.83567,-0.32859 -1.08028,-0.429 -1.41271,-0.57987 -0.18887,-0.0857 -0.36524,-0.14783 -0.39193,-0.13802 -0.0779,0.0286 0.18144,0.32179 0.4344,0.49118 0.21837,0.14623 0.37689,0.21786 1.33064,0.60137 0.6466,0.26 1.60778,0.59302 1.9802,0.6861 0.18765,0.0469 0.92474,0.16002 1.12098,0.17204 0.0848,0.005 0.0904,-0.009 0.0792,-0.20178 z m -8.36905,-0.93861 c 0.25453,-0.28877 0.65288,-0.82494 0.72167,-0.97135 0.0226,-0.048 0.0523,-0.17572 0.0661,-0.28377 0.0346,-0.27151 0.0435,-2.13299 0.0103,-2.16952 -0.0148,-0.0163 -0.14349,0.11113 -0.28597,0.28321 -0.55863,0.6747 -1.28373,1.18706 -2.02641,1.43187 -0.20149,0.0664 -0.36634,0.14423 -0.36634,0.17291 0,0.0618 1.5471,1.80873 1.60226,1.80919 0.0208,1.6e-4 0.14612,-0.12247 0.27839,-0.27254 z m -2.00606,-0.20975 c 0.52551,-0.006 0.56105,-0.0116 0.56105,-0.0903 0,-0.1652 -0.49735,-0.25666 -0.94808,-0.17434 -0.30398,0.0555 -0.39777,0.13058 -0.29908,0.23938 0.036,0.0397 0.0788,0.063 0.0952,0.0518 0.0164,-0.0112 0.28229,-0.0231 0.59087,-0.0265 z m -9.31906,-0.083 c -0.0129,-0.023 -0.0496,-0.0307 -0.0815,-0.0172 -0.0819,0.0346 -0.0722,0.0589 0.0234,0.0589 0.0448,0 0.071,-0.0188 0.0581,-0.0417 z m 2.38424,-0.94506 c -0.0132,-0.0145 -0.0473,-0.0161 -0.0759,-0.003 -0.0316,0.0139 -0.0222,0.0243 0.0239,0.0264 0.0417,0.002 0.0651,-0.008 0.052,-0.0229 z m 16.7632,-1.34345 c 0,-0.0331 -0.0267,-0.0846 -0.0594,-0.11449 -0.036,-0.0329 -0.0594,-0.0364 -0.0594,-0.009 0,0.025 -0.0108,0.0765 -0.024,0.11449 -0.0172,0.0495 -4.1e-4,0.0691 0.0594,0.0691 0.0459,0 0.0834,-0.0271 0.0834,-0.0601 z m -0.85346,-0.0244 c -0.0207,-0.0225 -0.11783,-0.0471 -0.21585,-0.0546 -0.12565,-0.01 -0.17483,-0.0313 -0.16674,-0.0734 0.008,-0.0434 -0.0215,-0.0545 -0.10861,-0.0404 -0.066,0.0107 -0.11157,0.0101 -0.10118,-0.001 0.0104,-0.0115 -0.0298,-0.0522 -0.0894,-0.0906 -0.0946,-0.0609 -0.31241,-0.0695 -1.72191,-0.0674 -1.60921,0.002 -1.61382,0.003 -1.69461,0.0982 -0.0446,0.0527 -0.11062,0.0958 -0.1468,0.0958 -0.0508,0 -0.0551,0.0118 -0.0187,0.0519 0.0341,0.0376 0.52396,0.0595 1.7802,0.0796 0.95323,0.0152 1.91047,0.0312 2.1272,0.0354 0.24531,0.005 0.37986,-0.008 0.35644,-0.0332 z m -13.80521,-0.11708 0.13246,-0.0925 -0.13294,-0.0267 c -0.42005,-0.0843 -1.00246,-0.12005 -1.92684,-0.11821 -1.24628,0.002 -1.55262,0.0333 -1.55262,0.15609 0,0.0409 -0.0387,0.0647 -0.10561,0.0647 -0.0581,0 -0.0923,0.0147 -0.076,0.0328 0.0392,0.0434 1.22118,0.0804 2.49893,0.0782 0.97985,-0.002 1.03665,-0.006 1.16264,-0.0943 z m -0.28192,-0.74524 c -0.0381,-0.011 -0.0693,-0.0376 -0.0693,-0.0591 0,-0.0215 -0.0234,-0.0292 -0.052,-0.0171 -0.0286,0.0121 -0.0858,-0.0192 -0.12714,-0.0695 -0.0592,-0.072 -0.0641,-0.099 -0.0234,-0.12673 0.0374,-0.0255 0.026,-0.0423 -0.0412,-0.0607 -0.12215,-0.0335 -1.7191,-0.0353 -1.88495,-0.002 -0.17854,0.0358 -0.16217,0.1082 0.0198,0.0876 0.0817,-0.009 0.11629,-0.008 0.0769,0.003 -0.0585,0.0161 -0.0627,0.0315 -0.0228,0.0845 0.0415,0.0551 0.0343,0.0608 -0.0481,0.038 -0.0533,-0.0147 -0.1411,-0.007 -0.19504,0.0163 -0.11256,0.0495 -0.20704,0.0422 1.16925,0.0899 1.10451,0.0382 1.28366,0.0406 1.19802,0.016 z m 13.51485,-0.0521 c 0.28806,-0.0264 0.29189,-0.0282 0.12685,-0.0606 -0.0945,-0.0186 -0.15956,-0.0524 -0.14628,-0.0761 0.0131,-0.0234 -0.0172,-0.0609 -0.0675,-0.0833 -0.12811,-0.0571 -1.50571,-0.14024 -1.81534,-0.10957 -0.30239,0.0299 -0.58317,0.14352 -0.50517,0.20433 0.0341,0.0266 0.0153,0.0335 -0.0568,0.0208 -0.0592,-0.0104 -0.0983,-0.002 -0.0868,0.0184 0.0115,0.0205 0.0566,0.0374 0.10015,0.0374 0.0436,0 0.0682,0.0196 0.0547,0.0436 -0.027,0.0482 1.88074,0.0522 2.39604,0.005 z m -0.9901,-0.22335 c -0.0327,-0.0233 -0.0416,-0.0423 -0.0198,-0.0423 0.0218,0 0.0663,0.019 0.099,0.0423 0.0327,0.0233 0.0416,0.0423 0.0198,0.0423 -0.0218,0 -0.0663,-0.019 -0.099,-0.0423 z m 0.74505,0.0138 c 0.0286,-0.0126 0.0628,-0.0111 0.0759,0.003 0.0132,0.0145 -0.0102,0.0248 -0.052,0.0229 -0.0461,-0.002 -0.0555,-0.0124 -0.0239,-0.0264 z m -13.22949,0.11714 c -0.0515,-0.0909 -0.16748,-0.11704 -0.20694,-0.0467 -0.0125,0.0223 -0.005,0.053 0.0175,0.0681 0.0221,0.0151 0.0403,0.005 0.0403,-0.0213 0,-0.0301 0.0337,-0.0227 0.088,0.0192 0.11389,0.0879 0.12076,0.0858 0.0612,-0.0194 z m 0.14781,0 c -0.0135,-0.024 -0.0457,-0.0434 -0.0716,-0.043 -0.0283,4e-4 -0.0235,0.0176 0.0122,0.043 0.0761,0.0542 0.0898,0.0542 0.0594,0 z m 2.65346,-0.56555 c -0.45802,-0.12861 -1.29619,-0.34079 -1.46534,-0.37093 -0.39061,-0.0696 -0.87263,-0.32809 -1.20793,-0.64773 -0.18785,-0.17909 -0.38805,-0.49361 -0.4431,-0.69615 -0.0643,-0.2364 -0.13196,-0.17966 -0.12695,0.10638 0.01,0.56124 0.49254,1.11512 1.18392,1.35849 0.47687,0.16786 1.42278,0.32185 2,0.3256 l 0.33663,0.002 z m 6.85149,-0.60249 v -0.3381 h -1.63217 c -1.46553,0 -1.63886,0.007 -1.69775,0.0722 -0.0361,0.0397 -0.0545,0.092 -0.0409,0.11626 0.0249,0.0444 0.21235,0.088 0.4505,0.10484 0.15518,0.0109 0.14722,0.0873 -0.0136,0.13085 -0.0895,0.0242 -0.0805,0.027 0.0404,0.0123 0.0857,-0.0104 0.17842,0.002 0.20593,0.0268 0.052,0.0476 0.4153,0.0312 0.88569,-0.0398 0.23442,-0.0354 0.21028,-0.0391 -0.27018,-0.0415 -0.29017,-10e-4 -0.53819,-0.0143 -0.55115,-0.0286 -0.052,-0.0573 2.50548,0.0303 2.5606,0.0878 0.0476,0.0496 -0.075,0.0732 -0.47992,0.0922 -0.24611,0.0116 -0.45295,0.0267 -0.45965,0.0337 -0.0138,0.0144 0.652,0.0938 0.86366,0.10304 l 0.13862,0.006 z m 0.64554,0.28618 c 0.071,-0.0783 0.0604,-0.49468 -0.0147,-0.57751 -0.0741,-0.0817 -0.1809,-0.0887 -0.24667,-0.0162 -0.0493,0.0543 -0.0656,0.45597 -0.0235,0.57706 0.0284,0.0816 0.21602,0.0926 0.28487,0.0167 z m -11.2396,-0.008 c 0,-0.009 -0.0357,-0.027 -0.0793,-0.0396 -0.0436,-0.0126 -0.0693,-0.005 -0.0571,0.0167 0.0213,0.038 0.13633,0.0573 0.13633,0.0228 z m 7.50495,-0.2452 0.0792,-0.0375 -0.0792,10e-4 c -0.0436,7.1e-4 -0.12376,0.017 -0.17822,0.0362 l -0.099,0.0349 0.099,10e-4 c 0.0545,7.1e-4 0.13465,-0.0156 0.17822,-0.0362 z m 5.17822,0.0147 c -0.0272,-0.0121 -0.0718,-0.0121 -0.099,0 -0.0272,0.0121 -0.005,0.022 0.0495,0.022 0.0545,0 0.0767,-0.01 0.0495,-0.022 z m 0.30693,-0.53752 c 0.0428,-0.0312 -0.008,-0.0436 -0.1802,-0.0441 -0.13178,-3.7e-4 -0.25654,-0.0188 -0.27723,-0.041 -0.044,-0.0471 -0.39967,-0.0772 -0.43625,-0.0369 -0.0137,0.0151 -0.05,0.0169 -0.0805,0.004 -0.0305,-0.0129 -0.0555,-0.002 -0.0555,0.024 0,0.0741 0.10994,0.0925 0.75248,0.12599 0.1198,0.006 0.24455,-0.008 0.27723,-0.0321 z m -13.83251,-0.0275 c -0.0132,-0.0145 -0.0473,-0.0161 -0.0759,-0.003 -0.0316,0.0139 -0.0222,0.0243 0.0239,0.0264 0.0417,0.002 0.0651,-0.008 0.052,-0.0229 z m 0.33746,-0.17716 c -0.0272,-0.0121 -0.0718,-0.0121 -0.099,0 -0.0272,0.0121 -0.005,0.022 0.0495,0.022 0.0545,0 0.0767,-0.01 0.0495,-0.022 z m -2.30994,-0.58349 c 0.10737,-0.17366 0.12544,-0.23045 0.0868,-0.27277 -0.0386,-0.0422 -0.0443,-0.0397 -0.0271,0.012 0.0305,0.0918 -0.0457,0.21509 -0.0882,0.14278 -0.022,-0.0375 -0.0537,-0.0124 -0.10471,0.0829 -0.0402,0.0751 -0.0528,0.12265 -0.0279,0.10567 0.0249,-0.017 0.0453,-0.0101 0.0453,0.0154 0,0.0254 -0.0178,0.0462 -0.0396,0.0462 -0.0218,0 -0.0396,0.0196 -0.0396,0.0437 0,0.0931 0.0649,0.0346 0.19501,-0.17584 z m -0.11581,0.006 c 0,-0.024 0.0178,-0.0558 0.0396,-0.0706 0.0218,-0.0148 0.0396,-0.007 0.0396,0.0167 0,0.024 -0.0178,0.0558 -0.0396,0.0706 -0.0218,0.0148 -0.0396,0.007 -0.0396,-0.0167 z m 15.04007,0.009 c -0.0379,-0.0109 -0.10915,-0.0113 -0.15842,-8.8e-4 -0.0493,0.0104 -0.0183,0.0194 0.0688,0.0199 0.0871,4.8e-4 0.12743,-0.008 0.0896,-0.019 z m -12.55329,-0.1082 c 0.009,-0.0513 -0.0168,-0.0602 -0.11881,-0.0411 l -0.13034,0.0244 0.11581,0.0156 c 0.0899,0.0121 0.10321,0.0253 0.0594,0.0589 -0.0479,0.0368 -0.0474,0.0406 0.003,0.0255 0.0327,-0.01 0.0646,-0.0473 0.0709,-0.0833 z m -2.13023,-0.36377 c 0.0358,0.0244 0.0422,0.0182 0.0207,-0.02 -0.0181,-0.0322 -0.008,-0.0712 0.0236,-0.0934 0.0372,-0.026 0.0393,-0.0383 0.007,-0.0388 -0.0562,-7.8e-4 -0.20947,0.17056 -0.20947,0.23419 0,0.0241 0.024,0.008 0.0534,-0.0367 0.0336,-0.0507 0.0726,-0.0674 0.10513,-0.0453 z m 4.10387,-0.46952 0.005,-0.31637 -0.0446,0.27946 c -0.0338,0.21163 -0.0638,0.2877 -0.12378,0.31344 -0.0661,0.0284 -0.0596,0.0345 0.0396,0.0369 l 0.11881,0.003 z m 3.7165,-0.35135 c -10e-4,-0.48253 -0.0192,-0.65428 -0.11134,-1.05643 -0.0605,-0.26412 -0.14468,-0.68649 -0.18701,-0.9386 -0.0423,-0.25212 -0.12033,-0.64502 -0.17333,-0.87313 -0.053,-0.2281 -0.1515,-0.70841 -0.2189,-1.06735 -0.0674,-0.35894 -0.12644,-0.65663 -0.13118,-0.66154 -0.005,-0.005 -0.10664,-0.0222 -0.22644,-0.0384 l -0.21782,-0.0294 -0.27976,0.4072 c -0.32884,0.47865 -0.48838,0.76616 -0.771,1.38946 -0.67575,1.4903 -1.01229,2.77728 -0.86651,3.31364 0.0839,0.30867 0.11169,0.25378 0.27408,-0.54147 0.12764,-0.62501 0.2293,-0.95968 0.50392,-1.65893 0.46475,-1.18338 1.02321,-2.31467 1.08376,-2.19541 0.0226,0.0445 0.0699,0.059 0.14362,0.0439 0.13243,-0.0271 0.16688,-0.0771 0.17194,-0.24959 l 0.004,-0.13096 0.06,0.15203 c 0.033,0.0836 0.10355,0.38812 0.15673,0.67667 0.0532,0.28855 0.12179,0.63269 0.15248,0.76475 0.0307,0.13206 0.0922,0.47585 0.13669,0.76398 0.0445,0.28813 0.11467,0.6221 0.15595,0.74216 0.1315,0.38249 0.23029,1.03364 0.23811,1.56944 0.004,0.24276 0.0143,0.29249 0.0539,0.24878 0.0347,-0.0383 0.0491,-0.22643 0.0482,-0.63083 z m 0.5243,0.39514 c -0.009,-0.054 -0.0172,-0.01 -0.0172,0.0982 0,0.10805 0.008,0.15225 0.0172,0.0982 0.009,-0.054 0.009,-0.14243 0,-0.19646 z m -6.34478,0.18554 c -0.0135,-0.024 -0.0412,-0.0437 -0.0617,-0.0437 -0.0205,0 -0.0373,0.0196 -0.0373,0.0437 0,0.024 0.0278,0.0437 0.0617,0.0437 0.034,0 0.0507,-0.0197 0.0373,-0.0437 z m -0.14934,-0.0264 c -0.0132,-0.0145 -0.0473,-0.0161 -0.0759,-0.003 -0.0316,0.0139 -0.0222,0.0243 0.0239,0.0264 0.0417,0.002 0.0651,-0.008 0.052,-0.0229 z m -0.0487,-0.1046 c 0.0135,-0.024 0.007,-0.0437 -0.0151,-0.0437 -0.0218,0 -0.0506,0.0196 -0.0641,0.0437 -0.0135,0.024 -0.007,0.0437 0.0151,0.0437 0.0218,0 0.0506,-0.0197 0.0641,-0.0437 z m 6.61688,-0.6985 c 0.0187,-0.12226 0.014,-0.13971 -0.0233,-0.0873 -0.0389,0.0546 -0.042,0.0509 -0.0186,-0.0218 0.0653,-0.20325 0.071,-0.25367 0.0254,-0.22257 -0.0288,0.0196 -0.0435,0.002 -0.0396,-0.0477 0.0124,-0.15779 -0.007,-0.23665 -0.0502,-0.20702 -0.0306,0.0208 -0.0358,-0.0148 -0.0174,-0.11748 0.0195,-0.10888 0.0156,-0.13025 -0.015,-0.0819 -0.0335,0.053 -0.0428,0.0425 -0.0489,-0.0546 -0.0192,-0.30628 -0.0292,-0.38416 -0.095,-0.74401 -0.0433,-0.23702 -0.0824,-0.36227 -0.10213,-0.32742 -0.0178,0.0314 -0.0234,-0.0211 -0.0126,-0.1182 0.0153,-0.13739 0.0108,-0.156 -0.0208,-0.0873 -0.0306,0.0666 -0.035,0.0406 -0.0182,-0.10914 0.0144,-0.12822 0.009,-0.17588 -0.015,-0.13722 -0.0469,0.0751 -0.10425,-0.0108 -0.071,-0.10628 0.0124,-0.0356 -0.007,-0.14464 -0.042,-0.24235 -0.0547,-0.15078 -0.0561,-0.18352 -0.009,-0.21632 0.0315,-0.022 0.0361,-0.0389 0.0107,-0.0393 -0.0914,-10e-4 -0.22355,-0.58866 -0.20794,-0.92418 0.005,-0.10435 -0.0121,-0.23263 -0.0376,-0.28508 -0.0255,-0.0524 -0.0464,-0.10757 -0.0464,-0.12251 0,-0.0568 0.86993,0.75693 1.28054,1.19782 0.23598,0.25339 0.58516,0.6768 0.77595,0.94092 0.4789,0.66295 0.7325,1.09816 1.16691,2.00255 0.0769,0.16005 0.10838,0.19473 0.12736,0.14021 0.069,-0.1981 -0.15726,-0.91893 -0.44764,-1.42638 -0.57479,-1.00447 -2.08362,-2.69158 -2.73407,-3.05713 -0.19366,-0.10884 -0.28787,-0.0651 -0.28787,0.13364 0,0.18677 0.21986,1.47422 0.28204,1.65156 0.11996,0.34213 0.58186,2.71456 0.59264,3.04396 l 0.006,0.17462 0.0348,-0.17462 c 0.0191,-0.096 0.0453,-0.24339 0.0581,-0.32743 z m 5.33864,0.15106 c 0.0346,-0.0995 -0.009,-0.16673 -0.072,-0.10958 -0.0275,0.0251 -0.13242,0.0582 -0.23319,0.0734 -0.23791,0.0359 -0.20953,0.0782 0.0636,0.0947 0.17153,0.0104 0.22177,-0.002 0.24152,-0.0585 z m 1.61874,-0.0927 c -0.0272,-0.0121 -0.0718,-0.0121 -0.099,0 -0.0272,0.0121 -0.005,0.022 0.0495,0.022 0.0545,0 0.0767,-0.01 0.0495,-0.022 z m 0.20792,-0.0147 c -0.10818,-0.0512 -0.13862,-0.0512 -0.13862,0 0,0.024 0.049,0.0423 0.10891,0.0406 0.0965,-0.003 0.0999,-0.007 0.0297,-0.0406 z m -12.92229,-0.36905 c -0.0266,-0.35389 0.0155,-0.51689 0.21765,-0.84259 0.27868,-0.44895 1.13985,-1.43628 1.61734,-1.85427 0.97261,-0.85142 1.15534,-1.00771 1.22563,-1.04827 0.0792,-0.0457 0.0792,-0.0455 10e-4,0.0511 -0.043,0.0533 -0.12732,0.12897 -0.18742,0.1681 -0.0793,0.0517 -0.10488,0.0979 -0.0932,0.16868 0.0116,0.0705 4.6e-4,0.0909 -0.0403,0.0737 -0.031,-0.0131 -0.0563,-0.002 -0.0563,0.0245 0,0.0266 0.0182,0.0483 0.0404,0.0483 0.045,0 -0.0978,0.3315 -0.18361,0.42603 -0.0502,0.0553 -0.0771,0.18516 -0.0384,0.18516 0.009,0 0.0829,-0.13261 0.16408,-0.29468 0.0812,-0.16207 0.22534,-0.41607 0.32024,-0.56444 0.0949,-0.14837 0.17255,-0.28385 0.17255,-0.30107 0,-0.0172 0.0802,-0.12581 0.17822,-0.24133 0.40814,-0.48097 0.0948,-0.38621 -0.77756,0.23514 -0.90071,0.64156 -2.37305,2.23158 -2.68876,2.90365 -0.0751,0.15985 -0.084,0.22679 -0.0607,0.45418 0.0217,0.21146 0.15491,0.6462 0.198,0.6462 0.005,0 7.3e-4,-0.10714 -0.009,-0.23808 z m 12.44704,-0.26396 c 0,-0.024 -0.0802,-0.0461 -0.17822,-0.0491 -0.15653,-0.005 -0.16135,-0.002 -0.0396,0.0193 l 0.13861,0.0247 -0.17822,0.0301 -0.17821,0.0301 0.21782,-0.006 c 0.1198,-0.003 0.21782,-0.0253 0.21782,-0.0493 z m 0.29703,-0.66984 c 0,-0.0317 -0.20928,-0.18146 -0.25364,-0.18146 -0.013,0 -0.0236,0.0197 -0.0236,0.0437 0,0.024 0.0228,0.0437 0.0507,0.0437 0.0279,0 0.0757,0.0382 0.10622,0.085 0.0513,0.0784 0.12034,0.0837 0.12034,0.009 z m -10.71756,-0.46749 c 0.0135,-0.0389 0.007,-0.0564 -0.0156,-0.0411 -0.0215,0.0147 -0.0392,0.0452 -0.0392,0.0677 0,0.0628 0.0284,0.049 0.0547,-0.0267 z m -1.92246,-0.56732 c 0.0253,-0.0612 0.046,-0.13916 0.046,-0.17333 0,-0.088 0.18623,-0.52698 0.33306,-0.78505 0.0683,-0.12006 0.14839,-0.27722 0.17798,-0.34925 0.0361,-0.0878 0.0605,-0.11048 0.074,-0.0688 0.0128,0.0393 0.0525,-0.008 0.10797,-0.12749 0.0483,-0.1043 0.11713,-0.19439 0.15301,-0.2002 0.0359,-0.006 0.0552,0.007 0.0429,0.0293 -0.0123,0.0219 -10e-4,0.0398 0.0245,0.0398 0.0338,0 0.0324,0.0192 -0.005,0.069 -0.0464,0.0616 -0.0352,0.0658 0.10407,0.0388 0.0858,-0.0166 0.19662,-0.0583 0.24625,-0.0927 0.0496,-0.0343 0.10754,-0.0506 0.12871,-0.0362 0.0212,0.0144 0.0385,0.005 0.0385,-0.02 0,-0.0254 -0.0189,-0.0462 -0.0419,-0.0462 -0.0231,0 -0.0304,-0.0206 -0.0163,-0.0457 0.015,-0.0268 0.10223,-0.0366 0.21026,-0.0236 0.10153,0.0122 0.15342,0.0117 0.1153,-10e-4 -0.0381,-0.0128 -0.0693,-0.0435 -0.0693,-0.0684 0,-0.0248 -0.0267,-0.0338 -0.0594,-0.02 -0.0852,0.036 -0.0732,-0.0141 0.0259,-0.1089 0.10226,-0.0978 0.1071,-0.0974 -0.23171,-0.0188 -0.27596,0.064 -0.51887,0.1744 -0.46032,0.20924 0.0179,0.0106 0.008,0.0124 -0.022,0.004 -0.03,-0.008 -0.0794,0.007 -0.10987,0.0352 -0.0304,0.0278 -0.0646,0.0404 -0.0759,0.028 -0.0596,-0.0657 0.73373,-0.44053 1.27245,-0.60118 0.52711,-0.15718 0.50753,-0.15489 0.48425,-0.0568 -0.0174,0.0733 0.031,0.0555 0.31015,-0.11367 0.46949,-0.28456 0.4475,-0.32718 -0.15331,-0.29709 -0.36665,0.0184 -0.58839,0.056 -0.90784,0.15429 -0.52037,0.16004 -0.8341,0.28705 -1.04756,0.42408 -0.15996,0.10268 -0.16793,0.1195 -0.38686,0.81565 -0.12295,0.39093 -0.25962,0.85813 -0.30372,1.03822 -0.0441,0.18008 -0.0895,0.3618 -0.10095,0.40382 -0.0321,0.11802 0.0453,0.0902 0.097,-0.0348 z m 0.66237,-1.60419 c 0.0149,-0.0431 0.037,-0.0673 0.0492,-0.0539 0.0122,0.0134 3e-5,0.0487 -0.027,0.0783 -0.0391,0.0428 -0.0437,0.0378 -0.0222,-0.0244 z m 0.44547,-0.23531 c 0.0286,-0.0126 0.0627,-0.0111 0.0759,0.003 0.0132,0.0145 -0.0102,0.0248 -0.052,0.0229 -0.0461,-0.002 -0.0555,-0.0124 -0.0239,-0.0264 z m 6.63771,1.85247 c -0.0153,-0.03 -0.0603,-0.0939 -0.0999,-0.14188 -0.0396,-0.048 -0.12564,-0.15608 -0.19114,-0.24011 -0.0655,-0.084 -0.11951,-0.13316 -0.12002,-0.10914 -5.2e-4,0.024 0.0899,0.15661 0.20104,0.29467 0.19464,0.24192 0.26851,0.31101 0.21003,0.19646 z m 1.94852,-0.40229 c -0.4346,-0.96934 -2.13594,-1.98705 -3.93961,-2.35661 -0.41077,-0.0842 -0.55629,-0.0856 -0.58409,-0.006 -0.0275,0.0791 0.0549,0.16862 0.46371,0.50342 0.2217,0.18156 0.33617,0.25165 0.34748,0.21277 0.009,-0.0319 0.0365,-0.0746 0.0604,-0.0948 0.026,-0.022 0.0139,-0.0262 -0.0301,-0.0104 -0.0509,0.0183 -0.0675,0.009 -0.0537,-0.031 0.0127,-0.0366 -0.0539,-0.0949 -0.18371,-0.16052 -0.34885,-0.17651 -0.13553,-0.14623 0.45669,0.0648 1.05094,0.37453 1.14285,0.41643 1.94039,0.88471 0.57937,0.34019 0.72819,0.4618 1.25757,1.02768 0.22869,0.24444 0.37992,0.37675 0.39054,0.34164 0.01,-0.0315 -0.047,-0.20067 -0.12554,-0.37592 z m -7.41883,0.0701 c 0.0463,-0.11141 0.0908,-0.21729 0.099,-0.2353 0.008,-0.018 -0.003,-0.0327 -0.0241,-0.0327 -0.0215,0 -0.0589,0.054 -0.0831,0.12005 -0.0243,0.066 -0.0712,0.1855 -0.10431,0.26549 -0.0347,0.0837 -0.0414,0.13262 -0.0159,0.11524 0.0244,-0.0166 0.0822,-0.12134 0.12842,-0.23274 z m 5.46972,-0.0132 c -0.0135,-0.0241 -0.0458,-0.0199 -0.0788,0.0103 -0.0753,0.0689 -0.0704,0.0801 0.0229,0.0532 0.0433,-0.0125 0.0685,-0.0411 0.0559,-0.0635 z m -0.58785,-0.42002 -0.15223,-0.16226 0.13112,0.18553 c 0.0721,0.10203 0.14061,0.17505 0.15222,0.16225 0.0116,-0.0128 -0.0474,-0.0963 -0.13111,-0.18552 z m -3.43883,-0.53281 c -0.004,-0.0515 -0.0204,-0.0708 -0.0416,-0.0475 -0.0196,0.0216 -0.0237,0.0607 -0.009,0.0868 0.0399,0.0711 0.0573,0.0576 0.0507,-0.0393 z m -2.74163,-0.0481 c 0.0624,-0.0326 0.0517,-0.0368 -0.0505,-0.0196 -0.11786,0.0198 -0.12598,0.0142 -0.0891,-0.0618 0.0223,-0.046 0.0385,-0.12906 0.036,-0.18466 -0.004,-0.0894 -0.007,-0.091 -0.0241,-0.0138 -0.0107,0.048 -0.0374,0.11162 -0.0593,0.14133 -0.0492,0.0668 -0.0118,0.18718 0.057,0.18303 0.0279,-0.002 0.0864,-0.0217 0.12995,-0.0445 z m 0.27175,-0.0616 c -0.0125,-0.036 -0.0565,-0.0655 -0.0978,-0.0655 -0.10482,0 -0.0939,0.0772 0.0141,0.10016 0.049,0.0104 0.093,0.0216 0.0978,0.0249 0.005,0.003 -0.002,-0.0235 -0.0141,-0.0595 z m 0.0721,-0.075 c -0.0284,-0.0313 -0.0469,-0.0339 -0.0469,-0.007 0,0.0583 0.0468,0.1099 0.0733,0.0808 0.0113,-0.0124 -6.3e-4,-0.0458 -0.0264,-0.0742 z m 4.89823,-0.31796 c -0.0694,-0.084 -0.14459,-0.1528 -0.16715,-0.1528 -0.0226,0 0.0195,0.0688 0.0933,0.1528 0.0739,0.084 0.14911,0.1528 0.16715,0.1528 0.018,0 -0.024,-0.0688 -0.0933,-0.1528 z m 3.55275,-0.13425 c -0.0324,-0.14242 -0.45344,-1.17195 -0.55692,-1.3619 -0.0428,-0.0786 -0.14949,-0.18094 -0.23709,-0.22754 -0.30319,-0.16129 -0.56259,-0.19714 -1.42661,-0.19716 -0.7496,-2e-5 -0.89327,0.0125 -1.45569,0.12722 -0.6105,0.12448 -0.89338,0.23832 -0.83794,0.3372 0.0172,0.0306 0.0981,0.0391 0.22106,0.0231 0.11916,-0.0156 0.18491,-0.009 0.17052,0.0164 -0.0137,0.0245 0.0583,0.0418 0.17364,0.0418 0.11077,0 0.20356,0.0215 0.21191,0.0491 0.008,0.027 0.0631,0.0454 0.12211,0.0409 0.12864,-0.01 0.24211,-0.0101 0.58205,-0.001 0.22058,0.006 0.24705,0.0145 0.18695,0.063 -0.0666,0.0537 -0.0666,0.0579 -5.8e-4,0.0858 0.0426,0.018 0.0868,0.003 0.11444,-0.0385 0.0621,-0.0936 0.0923,-0.0849 0.0676,0.0195 -0.0258,0.10866 -0.0853,0.10857 -0.40114,-5.6e-4 -0.13808,-0.0477 -0.29848,-0.0845 -0.35644,-0.0817 -0.0814,0.004 -0.0874,0.01 -0.0262,0.0256 0.0436,0.0113 0.22968,0.0679 0.4136,0.12574 0.18391,0.0579 0.34431,0.0876 0.35643,0.0661 0.0335,-0.0595 0.11837,-0.0669 0.37848,-0.0327 0.1307,0.0172 0.36238,0.0137 0.51485,-0.008 0.17785,-0.0249 0.30873,-0.0231 0.3651,0.005 0.11072,0.0552 0.0792,0.11783 -0.0605,0.12007 -0.10409,0.002 -0.10346,0.003 0.0267,0.0655 0.16792,0.0804 0.20338,0.0801 0.20338,-0.002 0,-0.036 0.0223,-0.067 0.0495,-0.0689 0.0396,-0.003 0.0396,-0.008 0,-0.0255 -0.0272,-0.0121 -0.0495,-0.0394 -0.0495,-0.0607 0,-0.0213 0.0234,-0.0288 0.052,-0.0167 0.0286,0.0121 0.0829,-0.0156 0.12069,-0.0617 0.0587,-0.0715 0.0607,-0.0925 0.0136,-0.14444 -0.0471,-0.0519 -0.0297,-0.0602 0.11993,-0.0571 0.20895,0.004 0.27482,0.0815 0.522,0.61145 0.14237,0.30527 0.37765,0.67482 0.42962,0.67482 0.01,0 0.007,-0.0506 -0.007,-0.11242 z m -3.60676,-1.24092 c 0.0135,-0.024 0.0412,-0.0437 0.0617,-0.0437 0.0205,0 0.0373,0.0197 0.0373,0.0437 0,0.024 -0.0278,0.0437 -0.0617,0.0437 -0.034,0 -0.0507,-0.0196 -0.0373,-0.0437 z m 0.48515,0.0147 c 0.0272,-0.0121 0.0718,-0.0121 0.099,0 0.0272,0.0121 0.005,0.022 -0.0495,0.022 -0.0545,0 -0.0767,-0.01 -0.0495,-0.022 z m 0.31931,-9.1e-4 c 0.0286,-0.0126 0.0628,-0.0111 0.0759,0.003 0.0132,0.0145 -0.0102,0.0248 -0.052,0.0229 -0.0461,-0.002 -0.0555,-0.0124 -0.0239,-0.0264 z m 1.82178,0 c 0.0286,-0.0126 0.0628,-0.0111 0.0759,0.003 0.0132,0.0145 -0.0102,0.0248 -0.052,0.0229 -0.0461,-0.002 -0.0555,-0.0124 -0.0239,-0.0264 z m -1.61634,-0.0575 c -0.0922,-0.0325 -0.093,-0.0353 -0.0122,-0.0393 0.0477,-0.002 0.0978,0.0153 0.11124,0.0393 0.0135,0.024 0.019,0.0417 0.0122,0.0393 -0.007,-0.002 -0.0568,-0.0201 -0.11125,-0.0393 z m 0.67533,-0.002 c 0.0529,-0.0369 0.34862,-0.0611 0.31147,-0.0255 -0.009,0.009 -0.0958,0.027 -0.19266,0.0407 -0.11396,0.0161 -0.15591,0.0107 -0.11881,-0.0152 z m 0.71081,0.002 c -0.0724,-0.0516 -0.01,-0.0516 0.099,0 0.0522,0.0247 0.059,0.0383 0.0198,0.0399 -0.0327,0.001 -0.0861,-0.0166 -0.11881,-0.0399 z m -2.50495,-0.0745 c 0.049,-0.0104 0.12921,-0.0104 0.17822,0 0.049,0.0104 0.009,0.0189 -0.0891,0.0189 -0.098,0 -0.13812,-0.009 -0.0891,-0.0189 z m 0.43565,0.002 c 0.0272,-0.0121 0.0718,-0.0121 0.099,0 0.0272,0.0121 0.005,0.022 -0.0495,0.022 -0.0544,0 -0.0767,-0.01 -0.0495,-0.022 z m 0.58415,-0.0139 c -0.12965,-0.0202 0.0276,-0.0321 0.45545,-0.0346 0.35941,-0.002 0.68361,0.01 0.72045,0.0259 0.0903,0.04 -0.92637,0.0475 -1.1759,0.009 z m -5.24752,1.35248 c 0,-0.024 -0.0278,-0.0437 -0.0617,-0.0437 -0.034,0 -0.0507,0.0196 -0.0373,0.0437 0.0135,0.024 0.0412,0.0437 0.0617,0.0437 0.0205,0 0.0373,-0.0197 0.0373,-0.0437 z m 0.13966,-0.0789 c -0.0122,-0.0134 -0.0442,-3e-5 -0.071,0.0298 -0.0388,0.0431 -0.0343,0.0481 0.0222,0.0244 0.039,-0.0164 0.061,-0.0408 0.0488,-0.0543 z m 6.55341,-0.11248 c 0,-0.009 -0.0357,-0.027 -0.0793,-0.0396 -0.0436,-0.0126 -0.0693,-0.005 -0.0571,0.0167 0.0213,0.038 0.13633,0.0573 0.13633,0.0228 z m -4.0375,-0.53017 c 0.0619,-0.0353 0.1604,-0.13325 0.21881,-0.21766 0.0876,-0.12656 0.10244,-0.18429 0.0848,-0.32913 -0.0393,-0.3226 -0.27098,-0.56475 -0.54076,-0.56507 -0.19029,-2.3e-4 -0.45192,0.15057 -0.57842,0.3334 -0.0902,0.13031 -0.1038,0.18525 -0.0869,0.35037 0.0453,0.44335 0.49855,0.65834 0.90247,0.42809 z m 4.25532,-0.0206 c 0.0135,-0.024 -0.003,-0.0437 -0.0373,-0.0437 -0.034,0 -0.0617,0.0197 -0.0617,0.0437 0,0.024 0.0168,0.0436 0.0373,0.0436 0.0205,0 0.0483,-0.0196 0.0617,-0.0436 z m 0.14198,-0.26652 c -0.0209,-0.0575 -0.0391,-0.0816 -0.0405,-0.0536 -0.003,0.0681 0.0428,0.19739 0.0626,0.1755 0.009,-0.01 -10e-4,-0.0644 -0.0222,-0.12194 z m -6.79544,-0.2074 c 0.10891,-0.0274 0.38179,-0.0681 0.6064,-0.0904 0.22461,-0.0223 0.43186,-0.0621 0.46057,-0.0884 0.0287,-0.0263 0.0627,-0.10561 0.0755,-0.17632 0.016,-0.0879 0.0738,-0.16373 0.18299,-0.23968 0.0878,-0.0611 0.15966,-0.13829 0.15966,-0.17152 0,-0.0868 -0.26539,-0.3314 -0.35961,-0.3314 -0.0935,0 -0.27405,0.18496 -0.27405,0.28078 0,0.0898 0.17118,0.20806 0.25185,0.17393 0.0436,-0.0184 0.065,-0.004 0.065,0.0427 0,0.0966 -0.0464,0.0886 -0.26442,-0.0456 -0.17464,-0.10748 -0.20083,-0.112 -0.36775,-0.0636 -0.24375,0.0707 -0.63286,0.27903 -0.75507,0.40418 -0.0948,0.0971 -0.30958,0.39009 -0.36985,0.5046 -0.0153,0.0291 0.0664,0.007 0.18147,-0.0483 0.11511,-0.0557 0.29839,-0.12359 0.40731,-0.15098 z m 3.01188,-0.65527 c 0.045,-0.0452 0.44362,-0.28279 0.54463,-0.32459 0.0428,-0.0177 0.0617,-0.0123 0.0472,0.0135 -0.0289,0.0515 0.0847,0.006 0.49526,-0.19629 0.16336,-0.0807 0.36405,-0.16024 0.44598,-0.17679 0.0819,-0.0165 0.15734,-0.0451 0.16759,-0.0634 0.0381,-0.0679 -0.66905,-0.21602 -1.0402,-0.21792 -0.15451,-7.9e-4 -0.19711,0.0266 -0.49073,0.31565 -0.17685,0.17408 -0.34682,0.35885 -0.37771,0.41062 -0.0506,0.0847 -0.0473,0.10324 0.0328,0.18553 0.0991,0.10179 0.1206,0.10837 0.17509,0.0536 z m 1.64451,-0.25033 c 0.30568,-0.0517 0.54918,-0.0627 0.93766,-0.0426 0.54198,0.0282 0.61605,0.006 0.42823,-0.12995 -0.41364,-0.29876 -1.33996,-0.22778 -1.84336,0.14124 -0.13352,0.0979 -0.13469,0.10109 -0.0367,0.10109 0.0557,0 0.28704,-0.0314 0.51415,-0.0698 z m -2.4122,-0.079 c 0.1697,-0.004 0.20526,-0.0265 0.43564,-0.26964 0.13797,-0.14563 0.29987,-0.29993 0.35977,-0.34289 0.0599,-0.043 0.10891,-0.0955 0.10891,-0.11674 0,-0.0808 -0.40976,-0.0336 -0.7619,0.0879 -0.20175,0.0696 -0.46929,0.16067 -0.59454,0.20243 -0.12524,0.0418 -0.22772,0.0982 -0.22772,0.1255 0,0.0273 0.0556,0.12385 0.12345,0.21465 0.10992,0.14699 0.13705,0.16172 0.24753,0.13439 0.0682,-0.0169 0.20722,-0.0329 0.30886,-0.0356 z m 9.95382,22.80644 c 0.0135,-0.024 0.0323,-0.0437 0.042,-0.0437 0.01,0 0.0175,0.0196 0.0175,0.0437 0,0.024 -0.0189,0.0437 -0.0419,0.0437 -0.0231,0 -0.0309,-0.0197 -0.0175,-0.0437 z m 0.5376,-0.30235 c -0.0898,-0.099 -0.0719,-0.22124 0.0503,-0.34224 0.18174,-0.17998 0.38241,-0.14336 0.38241,0.0698 0,0.28552 -0.26785,0.45419 -0.4327,0.27247 z m 0.49211,-0.30883 c 0.0135,-0.024 0.0323,-0.0437 0.0419,-0.0437 0.01,0 0.0175,0.0196 0.0175,0.0437 0,0.024 -0.0189,0.0437 -0.0419,0.0437 -0.0231,0 -0.0309,-0.0196 -0.0175,-0.0437 z m 0.47402,-1.18091 c -0.0376,-0.0671 0.0139,-0.11043 0.0647,-0.0544 0.0284,0.0314 0.0291,0.0558 0.002,0.0742 -0.0222,0.0151 -0.0522,0.006 -0.0668,-0.0198 z m -22.53506,-1.48503 c -0.0144,-0.0256 -0.0166,-0.057 -0.005,-0.0698 0.0284,-0.0313 0.10561,0.0238 0.10561,0.0753 0,0.0558 -0.0684,0.0521 -0.10064,-0.005 z m -0.31683,-0.65484 c -0.0144,-0.0256 -0.0176,-0.0559 -0.007,-0.0674 0.0104,-0.0114 0.0294,0.01 0.0423,0.0466 0.0268,0.0769 0.004,0.0905 -0.0351,0.0208 z m -0.25659,-0.28192 c -0.0765,-0.10164 -0.0219,-0.1208 0.06,-0.021 0.0395,0.0482 0.0535,0.0876 0.031,0.0876 -0.0225,0 -0.0634,-0.0299 -0.091,-0.0665 z m -0.29623,-0.28271 c -0.0138,-0.048 -0.0427,-0.0873 -0.0642,-0.0873 -0.0215,0 -0.1046,-0.0491 -0.18474,-0.10914 -0.0801,-0.06 -0.12375,-0.10914 -0.0969,-0.10914 0.0742,0 0.0583,-0.0782 -0.0205,-0.10088 -0.0489,-0.0141 -0.0518,-0.0212 -0.01,-0.024 0.0327,-0.002 0.10396,0.0366 0.15841,0.0863 0.0747,0.0682 0.0806,0.0838 0.0241,0.0635 -0.0622,-0.0223 -0.0667,-0.016 -0.0268,0.037 0.0264,0.0351 0.0731,0.0533 0.10369,0.0404 0.0339,-0.0143 0.0739,0.0207 0.10247,0.0899 0.0258,0.0624 0.0618,0.11342 0.0801,0.11342 0.0183,0 0.0332,0.0197 0.0332,0.0437 0,0.0782 -0.0732,0.0459 -0.099,-0.0437 z m 1.78553,-2.83357 c -0.1039,-0.12654 -0.0694,-0.3562 0.066,-0.43928 0.0978,-0.06 0.12002,-0.06 0.21782,10e-6 0.14547,0.0893 0.16593,0.27675 0.0456,0.41791 -0.10738,0.126 -0.23662,0.13438 -0.3294,0.0214 z m 23.18476,0.027 c -0.14086,-0.0781 -0.16064,-0.3431 -0.033,-0.44168 0.17698,-0.13664 0.31676,-0.0771 0.3702,0.15761 0.0209,0.0919 0.005,0.14198 -0.0742,0.22895 -0.11546,0.12728 -0.12816,0.12994 -0.26302,0.0551 z m -1.00146,-4.12386 c -0.0388,-0.0792 -0.11647,-0.45209 -0.0983,-0.47208 0.011,-0.0122 0.0471,0.0965 0.0803,0.24136 0.0547,0.23955 0.0609,0.31815 0.0181,0.23072 z m -1.33517,-2.98211 c 0,-0.0254 0.0178,-0.0341 0.0396,-0.0192 0.0218,0.0148 0.0396,0.0356 0.0396,0.0462 0,0.0106 -0.0178,0.0192 -0.0396,0.0192 -0.0218,0 -0.0396,-0.0208 -0.0396,-0.0462 z m -17.54456,-1.47658 c 0,-0.024 0.0178,-0.0558 0.0396,-0.0706 0.0218,-0.0148 0.0396,-0.007 0.0396,0.0167 0,0.024 -0.0178,0.0558 -0.0396,0.0706 -0.0218,0.0148 -0.0396,0.007 -0.0396,-0.0167 z m 16.35644,-0.40534 c 0,-0.02 0.0267,-0.0364 0.0594,-0.0364 0.0327,0 0.0594,0.0164 0.0594,0.0364 0,0.02 -0.0267,0.0364 -0.0594,0.0364 -0.0327,0 -0.0594,-0.0164 -0.0594,-0.0364 z m -16.65527,-0.0999 c -0.11819,-0.13028 -0.11945,-0.15549 -0.0151,-0.30169 0.0961,-0.13466 0.1963,-0.1469 0.28801,-0.0352 0.0881,0.10735 0.0827,0.25056 -0.0137,0.35672 -0.10254,0.11304 -0.14138,0.11006 -0.25923,-0.0198 z m 17.1378,-0.0253 c -0.0818,-0.0968 -0.0746,-0.26813 0.0147,-0.34983 0.0809,-0.074 0.21915,-0.0321 0.30272,0.0917 0.0606,0.0899 0.0673,0.1344 0.0346,0.2292 -0.0509,0.14747 -0.23884,0.16291 -0.35209,0.0289 z m -16.42312,-0.0422 c 0.0394,-0.048 0.078,-0.0873 0.0857,-0.0873 0.008,0 -0.008,0.0393 -0.0355,0.0873 -0.0272,0.048 -0.0658,0.0873 -0.0857,0.0873 -0.0199,0 -0.004,-0.0393 0.0355,-0.0873 z m 0.14318,-0.11808 c 0.0276,-0.08 0.78713,-0.94464 0.80882,-0.92072 0.0117,0.0129 -0.0552,0.11178 -0.14856,0.21982 -0.0934,0.10804 -0.21626,0.25301 -0.27307,0.32217 -0.14611,0.17787 -0.40536,0.43146 -0.38719,0.37873 z m 15.18355,-0.40579 c 0.0135,-0.024 0.0323,-0.0437 0.0419,-0.0437 0.01,0 0.0175,0.0197 0.0175,0.0437 0,0.024 -0.0189,0.0437 -0.0419,0.0437 -0.0231,0 -0.0309,-0.0196 -0.0175,-0.0437 z m -0.29703,-0.19646 c -0.0284,-0.0377 -0.0323,-0.0655 -0.009,-0.0655 0.0221,0 0.0505,0.0295 0.063,0.0655 0.0125,0.036 0.0166,0.0655 0.009,0.0655 -0.008,0 -0.0359,-0.0295 -0.063,-0.0655 z m -14.27063,-0.66211 c -0.0513,-0.0566 -0.0255,-0.22023 0.046,-0.29156 0.0924,-0.0921 0.24441,-0.095 0.24441,-0.005 0,0.20116 -0.19563,0.40064 -0.29043,0.29615 z m 13.41349,-0.21051 c 0.0126,-0.0363 0.006,-0.066 -0.0154,-0.066 -0.0211,0 -0.0384,-0.0198 -0.0384,-0.044 0,-0.0261 0.0322,-0.0218 0.0792,0.0105 0.0959,0.066 0.1,0.10272 0.0154,0.13849 -0.0457,0.0193 -0.0573,0.008 -0.0408,-0.039 z m -0.27391,-0.13008 c -0.0423,-0.0353 -0.0568,-0.0647 -0.0322,-0.0655 0.0246,-7.7e-4 0.0668,0.0281 0.094,0.0641 0.0626,0.0832 0.037,0.0837 -0.0617,0.001 z m 0.74382,-0.0475 c -0.097,-0.0749 -0.11927,-0.27304 -0.0405,-0.35987 0.11722,-0.12922 0.34851,0.003 0.34851,0.1996 0,0.0789 -0.12958,0.22823 -0.19802,0.22823 -0.0121,0 -0.0616,-0.0306 -0.11,-0.068 z m -0.81836,-0.17354 c -0.0423,-0.0352 -0.0578,-0.0641 -0.0345,-0.0641 0.0233,0 0.0645,0.0295 0.0916,0.0655 0.0617,0.0819 0.0423,0.0814 -0.0571,-0.001 z m 0.33628,-0.30157 c -0.0656,-0.0871 -0.0143,-0.24274 0.0799,-0.24274 0.0542,0 0.0765,0.0303 0.0765,0.10379 0,0.14234 -0.0922,0.22425 -0.15644,0.13895 z m -16.09675,-1.31589 c -0.0693,-0.19891 -0.0353,-0.23654 0.21358,-0.23654 0.26293,0 0.28813,0.0356 0.14042,0.19844 -0.11225,0.12373 -0.31654,0.14572 -0.354,0.0381 z m 0.6531,-0.0684 c -0.0239,-0.0756 -0.0435,-0.14437 -0.0435,-0.15279 0,-0.0375 0.47315,-0.0107 0.49485,0.028 0.0422,0.0753 -0.1654,0.26231 -0.29115,0.26231 -0.0953,0 -0.12471,-0.0252 -0.16022,-0.13749 z m 0.6733,0.0582 c -0.0935,-0.19257 -0.0616,-0.22632 0.21392,-0.22632 0.22542,0 0.25742,0.0102 0.25742,0.082 0,0.1146 -0.0893,0.18392 -0.27177,0.21089 -0.12932,0.0191 -0.16352,0.008 -0.19957,-0.0665 z m -2.14194,-0.0505 c -0.0689,-0.14194 -0.0158,-0.17582 0.27556,-0.17582 h 0.27147 l -0.029,0.12006 c -0.0267,0.1107 -0.0463,0.12106 -0.25158,0.13306 -0.19136,0.0112 -0.22879,3.3e-4 -0.26648,-0.0773 z m 18.56295,24.85647 c -0.0132,-0.0145 -0.0473,-0.0161 -0.0759,-0.003 -0.0316,0.0139 -0.0222,0.0243 0.0239,0.0264 0.0417,0.002 0.0651,-0.008 0.052,-0.0229 z m 3.94523,-0.50435 c 0.0332,-0.68138 0.0333,-4.66123 1.5e-4,-5.13141 -0.0183,-0.25884 -0.0417,-0.36486 -0.0846,-0.38302 -0.0326,-0.0138 -0.0702,-0.0132 -0.0834,0.001 -0.0132,0.0146 -0.0286,1.38037 -0.0341,3.03513 l -0.01,3.00866 h 0.0931 c 0.0911,0 0.0936,-0.0109 0.11895,-0.53073 z m -16.1608,-0.42699 c -0.0918,-0.0165 -0.20318,-0.0662 -0.24752,-0.11044 -0.0444,-0.0442 -0.0806,-0.0589 -0.0806,-0.0325 0,0.0903 0.17593,0.18387 0.33555,0.1784 l 0.1595,-0.005 z m -2.45502,-1.41751 c -0.0391,-0.0578 -0.0775,-0.086 -0.0852,-0.0627 -0.008,0.0233 0.019,0.07 0.0594,0.10371 0.1029,0.0859 0.10715,0.0792 0.0258,-0.041 z m 13.58306,0.0765 c -0.0268,-0.012 -0.0803,-0.0127 -0.11881,-0.002 -0.0385,0.0111 -0.0166,0.0208 0.0487,0.0217 0.0654,8.9e-4 0.0969,-0.008 0.0701,-0.0201 z m 1.12165,-1.75004 c -0.0275,-0.0303 -0.1026,0.0312 -0.1026,0.084 0,0.0289 0.0227,0.0256 0.0604,-0.009 0.0332,-0.0304 0.0522,-0.0642 0.0422,-0.0752 z m 0.47329,-0.5322 c -0.0144,-0.0256 -0.0451,-0.0466 -0.0682,-0.0466 -0.0263,0 -0.0232,0.0251 0.008,0.0665 0.0543,0.0721 0.10286,0.056 0.0602,-0.02 z m -20.73431,-3.05884 c 0,-0.024 -0.0189,-0.0437 -0.0419,-0.0437 -0.0231,0 -0.0309,0.0197 -0.0175,0.0437 0.0135,0.024 0.0323,0.0437 0.0419,0.0437 0.01,0 0.0175,-0.0197 0.0175,-0.0437 z m 23.98745,-1.4925 c -0.0126,-0.0348 -0.022,-0.0245 -0.0239,0.0264 -0.002,0.046 0.008,0.0718 0.0208,0.0573 0.0132,-0.0145 0.0146,-0.0522 0.003,-0.0837 z m -23.20792,-0.17462 c -0.0126,-0.0348 -0.022,-0.0245 -0.0239,0.0264 -0.002,0.046 0.008,0.0718 0.0208,0.0573 0.0132,-0.0145 0.0146,-0.0522 0.003,-0.0837 z m -1.13596,-0.31924 c -0.0512,-0.06 -0.0803,-0.10914 -0.0648,-0.10914 0.0155,0 -0.008,-0.0433 -0.053,-0.0962 -0.07,-0.0829 -0.073,-0.10128 -0.0213,-0.13313 0.033,-0.0203 0.0599,-0.0643 0.0599,-0.0977 0,-0.0769 0.0599,-0.11754 0.23628,-0.16027 0.092,-0.0223 0.037,-0.0273 -0.16062,-0.0146 -0.27599,0.0177 -0.58481,-0.017 -0.82443,-0.0929 -0.15909,-0.0504 -0.0632,0.0538 0.22598,0.24542 0.14595,0.0967 0.35447,0.26382 0.46338,0.37134 0.21861,0.21581 0.2825,0.25598 0.13862,0.0872 z m -0.21782,-0.45839 c -0.0135,-0.024 -0.006,-0.0437 0.0175,-0.0437 0.0231,0 0.0419,0.0196 0.0419,0.0437 0,0.024 -0.008,0.0437 -0.0175,0.0437 -0.01,0 -0.0285,-0.0197 -0.0419,-0.0437 z m 26.19241,0.15816 c 0.22017,-0.16513 0.42283,-0.33014 0.45035,-0.3667 0.0438,-0.0581 0.0327,-0.0626 -0.0884,-0.0355 -0.0762,0.017 -0.33898,0.0417 -0.58403,0.0549 -0.24505,0.0132 -0.44554,0.0343 -0.44554,0.047 0,0.0402 0.21654,0.24959 0.24752,0.23933 0.0163,-0.005 0.0297,0.0294 0.0297,0.0775 0,0.048 -0.0173,0.0873 -0.0384,0.0873 -0.0211,0 -0.0272,0.0319 -0.0137,0.0709 0.0148,0.0427 -0.001,0.087 -0.0409,0.11131 -0.036,0.0222 -0.0655,0.0615 -0.0655,0.0872 0,0.0287 0.0288,0.0236 0.0743,-0.0131 0.0409,-0.0329 0.25442,-0.195 0.47458,-0.36013 z m -25.97269,-0.81753 0.20382,-0.0482 -0.0223,-0.15919 c -0.0123,-0.0876 -0.0221,-0.39992 -0.0219,-0.69416 3.8e-4,-0.43536 -0.0138,-0.57064 -0.0764,-0.72646 -0.0683,-0.1703 -0.0703,-0.19872 -0.0174,-0.25704 0.0351,-0.0387 0.068,-0.18247 0.0802,-0.35067 l 0.0208,-0.28512 -0.17236,0.0427 c -0.0948,0.0235 -0.29762,0.10894 -0.45072,0.18992 -0.1531,0.081 -0.37168,0.17961 -0.48574,0.21919 -0.23913,0.083 -0.50502,0.34293 -0.62507,0.61107 -0.11684,0.26096 -0.10024,0.58871 0.0477,0.94225 0.1314,0.31396 0.26919,0.45237 0.51326,0.51558 0.21829,0.0565 0.7671,0.0566 1.00602,1.3e-4 z m -0.0878,-0.34841 c -0.0697,-0.0815 -0.0985,-0.15364 -0.0846,-0.21219 0.0116,-0.0488 0.0368,-0.078 0.0562,-0.0648 0.0193,0.0131 0.0351,-0.0123 0.0351,-0.0566 0,-0.0514 0.0286,-0.0805 0.0792,-0.0805 0.0634,0 0.0801,0.0308 0.0838,0.15435 0.0111,0.37559 -0.0242,0.42969 -0.16963,0.25981 z m -0.90002,-0.18249 c -0.25461,-0.14485 -0.32182,-0.70595 -0.11223,-0.93698 0.20361,-0.22445 0.7253,-0.16963 0.88117,0.0926 0.13827,0.23262 0.0355,0.66187 -0.19573,0.81728 -0.14039,0.0944 -0.43084,0.1081 -0.57321,0.0271 z m 0.4235,-0.39008 c 0.12066,-0.13301 2.7e-4,-0.47149 -0.16769,-0.47149 -0.19721,0 -0.24922,0.29696 -0.062,0.35402 0.0939,0.0286 0.0944,0.0304 0.01,0.0345 -0.0878,0.004 -0.11436,0.0493 -0.0627,0.10622 0.0438,0.0482 0.23168,0.0328 0.28251,-0.0233 z m 27.19604,0.85134 c 0.19796,-0.11554 0.34199,-0.28445 0.45581,-0.53456 0.0738,-0.16213 0.0853,-0.24457 0.07,-0.50204 -0.0316,-0.53273 -0.22878,-0.81844 -0.66173,-0.9587 -0.40328,-0.13065 -0.53176,-0.0956 -0.84756,0.23151 -0.2333,0.24162 -0.26839,0.35168 -0.30617,0.96022 -0.0534,0.86074 -0.0572,0.82485 0.0916,0.87476 0.0708,0.0237 0.33366,0.0382 0.58416,0.0322 0.37493,-0.009 0.48345,-0.0273 0.61386,-0.10341 z m -1.0099,-0.23463 c 0,-0.11187 0.13108,-0.0992 0.15096,0.0146 0.009,0.0524 -0.0122,0.0759 -0.0688,0.0759 -0.0567,0 -0.0821,-0.028 -0.0821,-0.0905 z m 0.0396,-0.17142 c 0,-0.024 0.0189,-0.0437 0.042,-0.0437 0.0231,0 0.0309,0.0197 0.0175,0.0437 -0.0135,0.024 -0.0323,0.0437 -0.0419,0.0437 -0.01,0 -0.0175,-0.0196 -0.0175,-0.0437 z m 0.27885,-0.158 c -0.25973,-0.24091 -0.29431,-0.54075 -0.0928,-0.80473 0.19041,-0.24945 0.62231,-0.27326 0.82048,-0.0453 0.1829,0.21044 0.18706,0.61571 0.009,0.84427 -0.0845,0.10826 -0.11922,0.12005 -0.35339,0.12005 -0.22236,0 -0.2774,-0.0164 -0.38295,-0.11434 z m 0.5288,-0.2603 c 0.0816,-0.23437 -0.0406,-0.49848 -0.23056,-0.49848 -0.224,0 -0.28694,0.3176 -0.0973,0.49113 0.10474,0.0959 0.29559,0.10014 0.32789,0.007 z m -0.71561,-1.19251 0.27025,-0.22413 -0.17124,-0.0857 c -0.0942,-0.0471 -0.24699,-0.0861 -0.33956,-0.0866 l -0.16832,-9.6e-4 v 0.32015 c 0,0.33053 0.0209,0.40507 0.0954,0.33948 0.0238,-0.021 0.16486,-0.13898 0.3135,-0.26225 z M 525.50456,489.605 c 0.28721,-0.14406 0.53922,-0.26193 0.56002,-0.26193 0.0798,0 0.11818,-0.12139 0.14505,-0.45839 l 0.0278,-0.34925 -0.23102,0.24252 c -0.12705,0.13339 -0.40032,0.3975 -0.60725,0.5869 -0.6624,0.60629 -0.65558,0.62183 0.10535,0.24015 z m 26.82975,0.14005 c -0.04,-0.0823 -0.3899,-0.45155 -0.87541,-0.92366 l -0.28956,-0.28157 0.0245,0.36523 c 0.0135,0.20088 0.0385,0.37834 0.0555,0.39437 0.0171,0.016 0.19092,0.0864 0.38634,0.15644 0.19541,0.07 0.4271,0.18098 0.51485,0.24658 0.18653,0.13943 0.23637,0.15099 0.18375,0.0426 z"
       id="path1" />
  </g>
  <metadata
     id="metadata1">
    <rdf:RDF>
      <cc:Work
         rdf:about="" />
    </rdf:RDF>
  </metadata>
</svg>
